<?xml version="1.0" encoding="UTF-8"?>
<svg version="1.1" xmlns="http://www.w3.org/2000/svg" width="1024" height="1024">
<path d="M0 0 C337.92 0 675.84 0 1024 0 C1024 337.92 1024 675.84 1024 1024 C686.08 1024 348.16 1024 0 1024 C0 686.08 0 348.16 0 0 Z " fill="#F1EADE" transform="translate(0,0)"/>
<path d="M0 0 C2.86318617 0.00314529 5.72532072 -0.02032403 8.58837891 -0.0456543 C24.0418528 -0.09915964 39.08268906 1.49975305 54.01416016 5.62817383 C54.79452637 5.84054687 55.57489258 6.05291992 56.37890625 6.27172852 C74.86810247 11.47028236 92.47231823 20.00652469 107.26416016 32.31567383 C108.20904297 33.0968457 109.15392578 33.87801758 110.12744141 34.68286133 C122.45487445 45.3564064 134.13923603 60.41087401 135.50244141 77.26098633 C135.71258338 86.26391107 134.53559452 94.44387368 128.88916016 101.75317383 C126.26416016 104.31567383 126.26416016 104.31567383 123.24072266 105.77661133 C118.73428143 109.62068849 118.73624132 113.81436895 118.01416016 119.50317383 C117.85850586 120.56858398 117.70285156 121.63399414 117.54248047 122.73168945 C117.0853352 125.92308092 116.66770176 129.11710219 116.26416016 132.31567383 C116.14556641 133.23558105 116.02697266 134.15548828 115.90478516 135.10327148 C115.30192636 139.83553362 114.75415763 144.57043513 114.26416016 149.31567383 C115.54291016 149.26926758 116.82166016 149.22286133 118.13916016 149.17504883 C119.84746995 149.13750356 121.55580524 149.10110637 123.26416016 149.06567383 C124.10333984 149.0321582 124.94251953 148.99864258 125.80712891 148.96411133 C134.13306521 148.83502704 140.17446159 151.60991422 146.26416016 157.31567383 C148.21337891 159.93676758 148.21337891 159.93676758 149.95166016 162.75317383 C150.53302734 163.68000977 151.11439453 164.6068457 151.71337891 165.56176758 C153.26416016 168.31567383 153.26416016 168.31567383 154.28369141 171.05004883 C155.14400753 173.63902904 155.14400753 173.63902904 158.26416016 175.12817383 C167.49255337 178.42880575 176.67448069 175.41267602 185.72555542 172.89440918 C216.50810251 164.41556093 216.50810251 164.41556093 228.40478516 170.91723633 C233.83152951 174.99869532 237.63618882 180.07327857 240.26416016 186.31567383 C241.51068354 195.79374353 240.47268648 204.52197313 234.79150391 212.34301758 C230.00194481 217.69871841 223.91939281 220.88607043 216.72973633 221.54956055 C209.96865952 221.57106243 203.87508611 220.63332131 197.32666016 219.00317383 C195.88661621 218.66249878 195.88661621 218.66249878 194.41748047 218.31494141 C189.42606419 217.12624737 184.46806442 215.83963568 179.51416016 214.50317383 C170.40224067 212.21866679 163.04841293 213.17577071 154.26416016 216.31567383 C153.95478516 218.26473633 153.95478516 218.26473633 153.63916016 220.25317383 C152.42487639 225.82304067 149.6070103 229.79192554 146.26416016 234.31567383 C145.60416016 235.30567383 144.94416016 236.29567383 144.26416016 237.31567383 C145.19228516 237.28086914 146.12041016 237.24606445 147.07666016 237.21020508 C157.72427988 236.95331685 168.23472297 237.70020988 178.82666016 238.69067383 C179.52170654 238.75388824 180.21675293 238.81710266 180.93286133 238.88223267 C188.5008054 239.578265 195.88470829 240.44023302 203.26416016 242.31567383 C203.26416016 243.30567383 203.26416016 244.29567383 203.26416016 245.31567383 C193.5438072 255.03602679 153.82590282 250.95162453 140.42041016 251.42504883 C139.24777115 251.4669207 138.07513214 251.50879257 136.86695862 251.55193329 C94.4670537 252.99766871 52.01277269 252.61530151 9.59495735 252.57281256 C-0.05921333 252.56415342 -9.71333151 252.57032042 -19.36749887 252.58006883 C-28.85799995 252.58925279 -38.34847896 252.59037516 -47.83898306 252.58519149 C-53.43307818 252.5821382 -59.02713847 252.58147248 -64.62123108 252.58826447 C-91.94326612 252.6169363 -119.14053674 252.01761544 -146.41902733 250.44839001 C-148.8231688 250.31067128 -151.22747472 250.17622135 -153.6318512 250.0426712 C-189.23806633 248.06456059 -189.23806633 248.06456059 -194.73583984 245.31567383 C-194.73583984 244.32567383 -194.73583984 243.33567383 -194.73583984 242.31567383 C-184.44498483 237.17024632 -168.70038408 238.42356545 -157.42333984 237.69067383 C-155.41093576 237.55576768 -153.39856558 237.42035488 -151.38623047 237.28442383 C-146.50313785 236.95566848 -141.6196386 236.63375979 -136.73583984 236.31567383 C-137.21287354 235.79908203 -137.68990723 235.28249023 -138.18139648 234.75024414 C-144.4537851 227.80400245 -144.4537851 227.80400245 -146.17333984 223.06567383 C-146.48142578 222.25614258 -146.78951172 221.44661133 -147.10693359 220.61254883 C-147.73583984 218.31567383 -147.73583984 218.31567383 -147.73583984 214.31567383 C-163.20539326 211.565531 -176.70497111 215.63258935 -191.52880859 219.72192383 C-201.08459833 222.29268496 -209.82154196 222.69509 -218.58349609 217.72583008 C-221.47309446 215.83264494 -223.57695454 214.02970107 -225.73583984 211.31567383 C-226.19990234 210.73688477 -226.66396484 210.1580957 -227.14208984 209.56176758 C-232.00253492 202.44661603 -231.64503349 194.5498804 -230.73583984 186.31567383 C-229.139058 180.15397448 -224.79448533 175.07869637 -219.73583984 171.31567383 C-214.71745314 168.72162853 -210.38984714 167.7978661 -204.79833984 167.87817383 C-204.06325195 167.88357178 -203.32816406 167.88896973 -202.57080078 167.89453125 C-194.6156699 168.10964969 -187.33745743 170.11666271 -179.73583984 172.31567383 C-169.06284061 175.29117664 -158.75312928 175.97829115 -147.73583984 176.31567383 C-147.55794922 174.96989258 -147.55794922 174.96989258 -147.37646484 173.59692383 C-145.9168439 166.12081653 -140.90408542 158.33744714 -134.74755859 153.87426758 C-130.16230109 150.93199083 -126.60777842 149.18273154 -121.06787109 149.21801758 C-120.17519531 149.22124023 -119.28251953 149.22446289 -118.36279297 149.2277832 C-116.96963867 149.24035156 -116.96963867 149.24035156 -115.54833984 149.25317383 C-114.60796875 149.25768555 -113.66759766 149.26219727 -112.69873047 149.2668457 C-110.37770272 149.27862757 -108.0568034 149.29507825 -105.73583984 149.31567383 C-106.28517327 144.44076914 -106.83658898 139.56610606 -107.38989258 134.69165039 C-107.57763271 133.03513888 -107.76481464 131.378564 -107.95141602 129.72192383 C-108.22051816 127.33373197 -108.49166073 124.94577903 -108.76318359 122.55786133 C-108.84551743 121.82324677 -108.92785126 121.0886322 -109.01268005 120.33175659 C-109.24195395 118.32501481 -109.48837788 116.320254 -109.73583984 114.31567383 C-109.86418213 113.19692871 -109.99252441 112.07818359 -110.12475586 110.92553711 C-110.50374539 108.02663073 -110.50374539 108.02663073 -113.48583984 106.31567383 C-114.55833984 105.65567383 -115.63083984 104.99567383 -116.73583984 104.31567383 C-123.32821611 97.88025891 -125.93637736 89.88700046 -126.17333984 80.75317383 C-125.53676612 63.86407729 -116.37453655 50.80868448 -104.73583984 39.31567383 C-103.94306641 38.52418945 -103.15029297 37.73270508 -102.33349609 36.91723633 C-85.04036183 20.51609401 -63.29640708 11.11957391 -40.67333984 4.62817383 C-39.63040771 4.32423706 -39.63040771 4.32423706 -38.56640625 4.01416016 C-25.78097789 0.47773369 -13.17916655 -0.03016083 0 0 Z " fill="#562D1D" transform="translate(507.73583984375,284.684326171875)"/>
<path d="M0 0 C1.34440833 -0.00853686 1.34440833 -0.00853686 2.71597642 -0.01724619 C3.70175465 -0.01842606 4.68753288 -0.01960594 5.70318317 -0.02082157 C6.74957488 -0.02590939 7.79596658 -0.03099721 8.87406713 -0.03623921 C12.39769629 -0.05199721 15.92130491 -0.06049758 19.44495869 -0.06893253 C21.96440989 -0.07846822 24.48385978 -0.08835926 27.0033083 -0.09858036 C34.57649358 -0.12728345 42.14968172 -0.14705063 49.72290155 -0.16397271 C51.86209703 -0.16876832 54.00129201 -0.17375156 56.14048696 -0.17877793 C69.42609872 -0.20974894 82.71171485 -0.23643271 95.9973526 -0.25319672 C99.07445184 -0.25714618 102.15155101 -0.26114918 105.22865009 -0.2652216 C105.9934431 -0.26622996 106.75823611 -0.26723832 107.54620466 -0.26827724 C119.9338065 -0.28528209 132.3212085 -0.3263896 144.70871278 -0.37724458 C157.42826536 -0.42903298 170.1477152 -0.45814052 182.86737233 -0.4653936 C190.00840611 -0.47005425 197.14911259 -0.48478825 204.29004192 -0.5251379 C211.00833367 -0.56305352 217.72596896 -0.57042927 224.44438648 -0.55713177 C226.90987665 -0.55718579 229.37539129 -0.56751344 231.84078884 -0.5888834 C235.20819433 -0.61651101 238.57355437 -0.60707814 241.94097614 -0.58844852 C242.91560076 -0.60524345 243.89022539 -0.62203838 244.89438409 -0.63934225 C251.68270311 -0.54555521 255.86952494 1.2501614 260.63953876 6.1398077 C269.72045942 18.58214086 270.94543613 33.28251223 269.16688251 48.0694952 C267.20517971 59.55779067 263.68707882 69.51473219 254.37391376 76.93277645 C250.60260992 79.55740007 247.23786673 79.28522928 242.7884798 79.2802496 C241.96809363 79.28322072 241.14770745 79.28619184 240.30246109 79.289253 C237.53793839 79.29796383 234.77345888 79.29945024 232.00892353 79.30094051 C230.03322475 79.30556694 228.05752686 79.31059136 226.08183002 79.31598568 C220.70381971 79.32912708 215.32582188 79.33555782 209.94779801 79.33999634 C206.59120244 79.34292376 203.23461032 79.34702788 199.87801647 79.35150051 C189.38564143 79.36517891 178.89327423 79.37484436 168.40089089 79.3787024 C156.27067307 79.38318667 144.14056774 79.40075024 132.01038414 79.429703 C122.64561624 79.4512829 113.28088008 79.46140467 103.91608757 79.46274352 C98.31734076 79.46379404 92.71869964 79.46975425 87.1199789 79.48756313 C81.85625118 79.50398049 76.59270931 79.5062303 71.32896519 79.49742413 C69.39353725 79.49665039 67.45809957 79.50104047 65.5226965 79.51088238 C62.88743342 79.52350083 60.25283875 79.51778067 57.61758137 79.50730038 C56.84560352 79.51535678 56.07362568 79.52341319 55.27825457 79.53171372 C52.32729649 79.50412642 50.16917435 79.47714382 47.6409111 77.86683941 C46.63953876 76.1398077 46.63953876 76.1398077 46.63953876 72.1398077 C49.66789265 70.62563076 52.80840744 70.98599701 56.13114643 70.98158932 C57.30364746 70.97418235 57.30364746 70.97418235 58.49983537 70.96662575 C61.13315225 70.95120191 63.76644467 70.94287695 66.39979267 70.93448544 C68.28183936 70.92491075 70.16388387 70.91490091 72.04592609 70.90448666 C77.16753131 70.87738716 82.28914579 70.85640496 87.41078329 70.83648467 C92.75864867 70.81465617 98.10648534 70.78725217 103.45432758 70.76042843 C113.58675353 70.71045904 123.71919538 70.665536 133.8516525 70.62240607 C145.38475113 70.57306992 156.91782095 70.51813839 168.45089173 70.46272647 C192.18041388 70.34884126 215.90996365 70.24201651 239.63953876 70.1398077 C239.63953876 69.8098077 239.63953876 69.4798077 239.63953876 69.1398077 C222.74304696 67.65106839 205.85622633 66.6388365 188.91242695 65.87885189 C44.16239488 59.3227949 44.16239488 59.3227949 23.51063251 39.04996395 C21.25838306 36.53381456 19.1539717 34.16867358 17.63953876 31.1398077 C17.59055439 32.25097958 17.54157001 33.36215145 17.49110126 34.5069952 C16.79250639 48.98044799 16.02606449 63.68567738 4.63953876 74.1398077 C-0.14042811 77.26141872 -0.14042811 77.26141872 -3.79014874 76.8976202 C-9.48952667 75.21725649 -13.90074189 70.35145763 -16.86046124 65.3273077 C-18.36046124 62.1398077 -18.36046124 62.1398077 -18.36046124 60.1398077 C-16.78264874 59.6448077 -16.78264874 59.6448077 -15.17296124 59.1398077 C-10.50303369 57.16006154 -8.44272414 53.62269601 -6.36046124 49.1398077 C-3.7332564 41.47712693 -4.14464242 30.64608311 -7.36046124 23.2648077 C-8.8658117 20.67924897 -9.78694618 19.42391497 -12.47374249 18.0929327 C-14.89337085 17.39609393 -14.89337085 17.39609393 -18.36046124 17.1398077 C-16.61046124 11.3898077 -16.61046124 11.3898077 -14.36046124 9.1398077 C-10.78672217 8.99966107 -8.37146333 9.36681235 -5.48546124 11.57340145 C1.639034 18.95892346 3.84195831 27.70438222 4.01453876 37.7648077 C3.70814349 47.78393318 1.6527375 55.98348048 -2.36046124 65.1398077 C5.15636741 57.62297906 6.77557632 46.79051692 7.01453876 36.6398077 C6.77667997 26.52563805 4.94903028 16.34047306 -1.36046124 8.1398077 C-3.6048477 6.15205586 -5.78256762 4.70676264 -8.36046124 3.1398077 C-6.61402655 -0.35306167 -3.5074064 0.01299716 0 0 Z " fill="#BA7546" transform="translate(387.3604612350464,441.86019229888916)"/>
<path d="M0 0 C19.31619928 -0.85731666 39.39694153 4.54540136 53.93359375 17.6640625 C58.22477873 21.73926915 61.81393254 25.86549645 64.37109375 31.2265625 C64.96921875 32.4021875 65.56734375 33.5778125 66.18359375 34.7890625 C68.68887084 42.06012531 68.97144061 51.82145093 65.68359375 58.8515625 C63.33460497 62.68852282 60.44285535 66.1906817 56.37109375 68.2265625 C55.91650116 70.27134446 55.91650116 70.27134446 55.7734375 72.765625 C55.69416016 73.74144531 55.61488281 74.71726562 55.53320312 75.72265625 C55.45908203 76.75519531 55.38496094 77.78773438 55.30859375 78.8515625 C55.19161133 80.27275391 55.19161133 80.27275391 55.07226562 81.72265625 C54.20554736 92.88254934 53.85778543 104.03265386 53.37109375 115.2265625 C22.68109375 115.2265625 -8.00890625 115.2265625 -39.62890625 115.2265625 C-40.61890625 105.6565625 -41.60890625 96.0865625 -42.62890625 86.2265625 C-43.53502445 77.10135889 -43.53502445 77.10135889 -45.62890625 68.2265625 C-47.20671875 67.6696875 -47.20671875 67.6696875 -48.81640625 67.1015625 C-53.8654725 65.15480912 -56.22624283 60.87869939 -58.62890625 56.2265625 C-61.39686541 47.68639584 -59.6422992 39.43173177 -56.23828125 31.37109375 C-48.53666071 16.32302449 -34.59977806 7.99344099 -18.94140625 2.9140625 C-12.49396718 1.07954914 -6.65622704 0.41556638 0 0 Z " fill="#E7BF91" transform="translate(449.62890625,318.7734375)"/>
<path d="M0 0 C5.13690447 4.15061881 8.30746098 7.89766905 9.19140625 14.59375 C9.54486816 25.26601917 6.87832868 31.57333834 -0.25 39.25 C-3.25 41.25 -3.25 41.25 -6.25 41.25 C-6.25 41.91 -6.25 42.57 -6.25 43.25 C-5.445625 43.29125 -4.64125 43.3325 -3.8125 43.375 C4.14793073 45.33019351 9.24131018 50.11667584 13.55859375 56.90625 C18.23556701 66.10685313 17.86082883 76.16740703 15.3125 86 C11.87625287 95.7736856 5.63510158 101.73427406 -3.4375 106.3125 C-16.95315143 112.75935955 -32.47636974 111.31288539 -46.35546875 106.5234375 C-48.74772183 105.48925683 -50.042966 104.65112838 -51.25 102.3125 C-51.25 100.25 -51.25 100.25 -50.26716614 98.57106018 C-48.84941338 95.33590581 -48.9878746 92.57767875 -48.9753418 89.05053711 C-48.97023087 88.33300766 -48.96511993 87.61547821 -48.95985413 86.87620544 C-48.94597928 84.50983287 -48.94691282 82.14375211 -48.94921875 79.77734375 C-48.94533155 78.13114819 -48.94099683 76.48495363 -48.93623352 74.83876038 C-48.92877652 71.39141586 -48.92905946 67.94417378 -48.93432617 64.49682617 C-48.94012973 60.07583889 -48.92316617 55.65526933 -48.8999815 51.23435116 C-48.88526456 47.8363245 -48.88436949 44.43839903 -48.88749123 41.04034615 C-48.8869773 39.41003146 -48.88172618 37.77971122 -48.87167931 36.14942741 C-48.85936709 33.87269601 -48.86607364 31.59678622 -48.87768555 29.32006836 C-48.87705612 28.02419296 -48.8764267 26.72831757 -48.8757782 25.39317322 C-49.28026316 21.99581287 -49.71146457 21.33825031 -52.25 19.25 C-52.265625 16.73046875 -52.265625 16.73046875 -51.25 14.25 C-48.921875 12.73828125 -48.921875 12.73828125 -46 11.5625 C-45.04609375 11.16675781 -44.0921875 10.77101563 -43.109375 10.36328125 C-42.16578125 9.99589844 -41.2221875 9.62851562 -40.25 9.25 C-39.40953125 8.85167969 -38.5690625 8.45335937 -37.703125 8.04296875 C-35.25 7.25 -35.25 7.25 -30.25 8.25 C-30.25 19.47 -30.25 30.69 -30.25 42.25 C-21.13848971 40.26042375 -21.13848971 40.26042375 -14.8046875 34.12890625 C-10.77691295 27.12057854 -9.55815777 21.33430453 -10.25 13.25 C-12.04353835 7.96902596 -14.85999202 5.45104749 -19.25 2.25 C-29.30493511 -1.10164504 -41.64749712 0.95361049 -50.90234375 5.57421875 C-57.72329559 9.39034599 -62.82659958 13.60534892 -65.7421875 21.12890625 C-67.19353544 27.19107494 -67.23620384 33.16801411 -64.5625 38.8125 C-62.25714604 41.24246769 -60.23545352 42.75727324 -57.25 44.25 C-56.59 44.58 -55.93 44.91 -55.25 45.25 C-54.9375 47.5 -54.9375 47.5 -55.25 50.25 C-57.36257906 52.77146532 -59.08667988 53.97133396 -62.3046875 54.7421875 C-66.97725932 55.14638921 -69.87408701 54.28581846 -73.5625 51.375 C-78.91369382 46.06653028 -81.36955967 39.80241891 -81.75 32.3125 C-81.30944067 22.95795681 -77.32457127 15.18181004 -71.25 8.25 C-70.77175781 7.65574219 -70.29351562 7.06148437 -69.80078125 6.44921875 C-53.11655886 -12.5043941 -20.01878815 -13.79571918 0 0 Z " fill="#58301F" transform="translate(574.25,569.75)"/>
<path d="M0 0 C1.18819336 -0.00386719 1.18819336 -0.00386719 2.40039062 -0.0078125 C3.64272461 0.00378906 3.64272461 0.00378906 4.91015625 0.015625 C5.73451172 0.00789062 6.55886719 0.00015625 7.40820312 -0.0078125 C8.20162109 -0.00523437 8.99503906 -0.00265625 9.8125 0 C10.90099243 0.00338379 10.90099243 0.00338379 12.01147461 0.00683594 C13.97265625 0.265625 13.97265625 0.265625 16.97265625 2.265625 C17.61694336 4.78979492 17.61694336 4.78979492 18 7.99609375 C18.15049805 9.18106445 18.30099609 10.36603516 18.45605469 11.58691406 C18.68083496 13.50068848 18.68083496 13.50068848 18.91015625 15.453125 C19.2438208 18.09818683 19.58024881 20.74269413 19.921875 23.38671875 C20.00680206 24.05188507 20.09172913 24.71705139 20.17922974 25.40237427 C21.11042183 32.57083568 22.38381452 39.67023201 23.75366211 46.76635742 C24.79405322 52.36664913 25.13415284 57.56710239 24.97265625 63.265625 C25.90078125 62.75 26.82890625 62.234375 27.78515625 61.703125 C30.97265625 60.265625 30.97265625 60.265625 33.97265625 61.265625 C34.28515625 64.515625 34.28515625 64.515625 33.97265625 68.265625 C32.30598958 69.59895833 30.63932292 70.93229167 28.97265625 72.265625 C27.96690682 86.29409555 32.89883644 103.52882918 40.28515625 115.515625 C43.75045238 119.06150941 47.34246039 120.6415258 51.97265625 122.265625 C51.70575619 125.46842569 51.13936609 127.0600162 49.09765625 129.578125 C44.37294118 132.12947114 40.22065269 132.2014817 34.97265625 131.265625 C26.11765338 127.48049117 21.129866 120.24175005 17.34765625 111.703125 C13.38982324 101.60426723 10.48429562 91.13796159 9.97265625 80.265625 C8.92207031 80.28882813 7.87148438 80.31203125 6.7890625 80.3359375 C-0.79595617 80.45151874 -7.66866264 80.36810532 -15.02734375 78.265625 C-15.13949219 78.88824219 -15.25164062 79.51085937 -15.3671875 80.15234375 C-18.64002416 95.48975476 -25.22022863 113.04565089 -36.83984375 123.890625 C-41.29430255 125.81215625 -45.24971516 126.07692042 -50.02734375 125.265625 C-53.0400883 123.28162249 -53.77300379 122.02864488 -54.90234375 118.640625 C-54.94359375 117.856875 -54.98484375 117.073125 -55.02734375 116.265625 C-52.43236605 113.6706473 -50.02013122 113.37596544 -46.51171875 112.53515625 C-39.58978189 108.99800298 -36.39230314 101.60598457 -33.33984375 94.828125 C-32.77426758 93.61672852 -32.77426758 93.61672852 -32.19726562 92.38085938 C-27.81477119 83.6417906 -27.81477119 83.6417906 -26.02734375 74.265625 C-29.83942469 72.47170456 -32.81449738 71.80770692 -37.02734375 72.265625 C-39.05212838 73.37212169 -39.05212838 73.37212169 -40.02734375 75.265625 C-39.75698228 78.23960116 -39.17288349 79.12008526 -37.02734375 81.265625 C-37.56305804 84.80133929 -37.56305804 84.80133929 -39.02734375 86.265625 C-46.2330464 86.85625636 -46.2330464 86.85625636 -49.46484375 84.453125 C-51.94858274 80.97589042 -52.49229231 77.64484907 -52.4375 73.39453125 C-51.45705856 68.30557331 -47.3513486 65.22014012 -43.33984375 62.328125 C-35.84780762 59.92501907 -28.4240014 61.03267175 -21.02734375 63.265625 C-20.84558594 62.00105469 -20.84558594 62.00105469 -20.66015625 60.7109375 C-19.99134353 57.06962379 -18.99879906 53.67687492 -17.90234375 50.140625 C-15.46904673 42.09781249 -13.37736779 33.97928849 -11.33984375 25.828125 C-11.04255371 24.64395996 -10.74526367 23.45979492 -10.43896484 22.23974609 C-8.95076372 16.24051447 -7.57608844 10.2674227 -6.54370117 4.17163086 C-5.50971093 0.35491132 -3.56504866 0.0110999 0 0 Z " fill="#582F1F" transform="translate(253.02734375,563.734375)"/>
<path d="M0 0 C1.40958984 -0.00193359 1.40958984 -0.00193359 2.84765625 -0.00390625 C3.83636719 -0.00003906 4.82507813 0.00382813 5.84375 0.0078125 C7.32681641 0.00201172 7.32681641 0.00201172 8.83984375 -0.00390625 C9.77957031 -0.00261719 10.71929687 -0.00132812 11.6875 0 C12.55568359 0.00112793 13.42386719 0.00225586 14.31835938 0.00341797 C16.34375 0.1328125 16.34375 0.1328125 17.34375 1.1328125 C17.42716116 3.01967564 17.44007201 4.90968989 17.42553711 6.79833984 C17.4190062 8.00984711 17.41247528 9.22135437 17.40574646 10.46957397 C17.39431107 11.78930206 17.38287567 13.10903015 17.37109375 14.46875 C17.36415278 15.82776547 17.35794161 17.18678485 17.35243225 18.54580688 C17.32792931 24.3304178 17.29242645 30.11492405 17.24780273 35.89941406 C17.2210252 39.43427458 17.20397768 42.9690739 17.19293404 46.50401688 C17.18369728 48.50877892 17.16331521 50.51347953 17.14280701 52.51815796 C17.13942825 53.73596954 17.1360495 54.95378113 17.13256836 56.20849609 C17.12511093 57.2824765 17.1176535 58.35645691 17.10997009 59.46298218 C17.14839824 62.35979159 17.14839824 62.35979159 19.34375 65.1328125 C22.48262125 65.53351947 24.46189552 65.76270856 27.09375 63.8828125 C29.63980917 60.31832966 30.59429899 57.64350542 30.60253906 53.24414062 C30.60884338 52.27633667 30.61514771 51.30853271 30.62164307 50.31140137 C30.6175946 49.27277954 30.61354614 48.23415771 30.609375 47.1640625 C30.61128845 46.09160278 30.6132019 45.01914307 30.61517334 43.91418457 C30.61653358 41.64802821 30.6128484 39.38186402 30.60449219 37.11572266 C30.59379061 33.64598089 30.60439316 30.1767569 30.6171875 26.70703125 C30.61586588 24.50520719 30.61330343 22.30338345 30.609375 20.1015625 C30.61342346 19.06294067 30.61747192 18.02431885 30.62164307 16.95422363 C30.61533875 15.98641968 30.60903442 15.01861572 30.60253906 14.02148438 C30.60094788 13.1719519 30.59935669 12.32241943 30.59771729 11.44714355 C30.48724718 9.09862489 30.48724718 9.09862489 29.26507568 7.13977051 C28.34375 5.1328125 28.34375 5.1328125 29.34375 0.1328125 C36.60375 0.1328125 43.86375 0.1328125 51.34375 0.1328125 C51.83875 2.6078125 51.83875 2.6078125 52.34375 5.1328125 C51.68375 6.1228125 51.02375 7.1128125 50.34375 8.1328125 C50.02707993 11.24478312 50.02707993 11.24478312 50.05664062 14.84814453 C50.04639107 15.86587196 50.04639107 15.86587196 50.03593445 16.90415955 C50.02234992 18.37734797 50.01329439 19.85058351 50.00822449 21.32382584 C49.99992324 23.66224708 49.97940293 26.00028002 49.95568848 28.33859253 C49.90745184 33.31160793 49.87457506 38.28466277 49.84375 43.2578125 C49.80797852 49.00226673 49.76578749 54.74653383 49.70780945 60.49081039 C49.6878987 62.78224022 49.67945055 65.07352292 49.67150879 67.36502075 C49.57205712 80.94614618 47.87448979 93.04910962 38.34375 103.33984375 C31.12200924 109.81402151 23.89296828 111.46627223 14.4453125 111.33984375 C6.73729459 110.8253287 1.95073488 108.44018543 -3.34375 102.8515625 C-5.99827356 99.3754007 -6.11158624 95.58008147 -6.0703125 91.36328125 C-5.58504581 88.74925028 -4.93248366 87.82760237 -2.96875 86.0703125 C0.2916929 84.163261 1.68136966 83.42068299 5.34375 84.1328125 C7.34375 86.1328125 7.34375 86.1328125 7.36328125 88.12109375 C7.29496094 88.88808594 7.22664063 89.65507813 7.15625 90.4453125 C7.09126873 94.10789305 7.24245383 94.97770274 9.34375 98.1953125 C12.47155517 100.21535334 14.61017547 100.87762539 18.3515625 100.609375 C21.86961613 99.76780139 24.18883837 97.92072942 26.34375 95.1328125 C30.35591281 87.64135226 30.51328305 79.43993184 30.34375 71.1328125 C29.87324219 71.55433594 29.40273438 71.97585938 28.91796875 72.41015625 C28.29535156 72.95800781 27.67273438 73.50585938 27.03125 74.0703125 C26.41636719 74.61558594 25.80148437 75.16085937 25.16796875 75.72265625 C20.66248336 79.20548329 14.75350277 78.69083857 9.34375 78.1328125 C3.93961052 75.4798713 0.36620512 71.88008699 -1.74414062 66.2097168 C-3.15839198 60.96434858 -2.97384554 55.61097352 -3 50.21484375 C-3.0146228 49.08004074 -3.02924561 47.94523773 -3.04431152 46.77604675 C-3.10638483 41.93975796 -3.14625834 37.103346 -3.18798828 32.2668457 C-3.22168867 28.72854184 -3.26679243 25.19050955 -3.3125 21.65234375 C-3.3177771 20.55751175 -3.3230542 19.46267975 -3.32849121 18.33467102 C-3.34190552 17.31648788 -3.35531982 16.29830475 -3.36914062 15.24926758 C-3.38007751 13.90859978 -3.38007751 13.90859978 -3.39123535 12.54084778 C-3.67439457 9.96794326 -4.44189187 8.39123745 -5.65625 6.1328125 C-5.84375 3.4453125 -5.84375 3.4453125 -5.65625 1.1328125 C-4.03424485 -0.48919265 -2.23601969 0.002905 0 0 Z " fill="#5A3121" transform="translate(418.65625,593.8671875)"/>
<path d="M0 0 C1.75533958 1.75533958 1.17046549 4.23613828 1.20532227 6.62133789 C1.22526749 7.82250748 1.24521271 9.02367706 1.26576233 10.26124573 C1.28247482 11.5685112 1.29918732 12.87577667 1.31640625 14.22265625 C1.33696958 15.56644847 1.35796588 16.91023412 1.37937927 18.25401306 C1.43466419 21.79674987 1.48404498 25.33954567 1.53222656 28.88238525 C1.58239487 32.4952115 1.63810525 36.10795172 1.69335938 39.72070312 C1.80101937 46.81372747 1.9024468 53.90682888 2 61 C3.59163521 58.94667917 5.18115526 56.89177726 6.76953125 54.8359375 C7.21558716 54.26093506 7.66164307 53.68593262 8.12121582 53.09350586 C15.42985831 44.48976862 15.42985831 44.48976862 17.6875 34.0625 C17.460625 33.051875 17.23375 32.04125 17 31 C18.47886642 28.94886226 19.39057662 28.10917499 21.90112305 27.65942383 C22.94586792 27.6829895 22.94586792 27.6829895 24.01171875 27.70703125 C24.76904297 27.71669922 25.52636719 27.72636719 26.30664062 27.73632812 C27.09232422 27.76146484 27.87800781 27.78660156 28.6875 27.8125 C29.88342773 27.83280273 29.88342773 27.83280273 31.10351562 27.85351562 C33.06929967 27.88882911 35.03473582 27.94263553 37 28 C37.671875 29.8203125 37.671875 29.8203125 38 32 C36.47387002 33.59549952 34.92731855 35.17430815 33.30859375 36.67578125 C30.38474798 39.61941616 27.86138492 42.79379902 25.3125 46.0625 C24.8494043 46.65208496 24.38630859 47.24166992 23.90917969 47.84912109 C21.09969415 51.46550057 18.49551378 55.16029847 16 59 C16.89900024 59.35952759 16.89900024 59.35952759 17.81616211 59.72631836 C25.03405748 63.93601765 28.04039682 75.56093071 30.9375 82.9375 C36.20411759 95.90390857 41.76785796 107.84523864 53.8125 115.875 C57.72716809 117.25664756 61.61003597 117.94000553 65.70703125 118.5703125 C68 119 68 119 69 120 C69.375 122.3125 69.375 122.3125 69 125 C63.89981891 129.83175051 60.22730196 130.47205446 53.3671875 130.40625 C42.7293395 129.12279734 33.97761625 122.02402559 27.53515625 113.88671875 C21.00478103 104.96922581 17.26492324 95.60557834 13.76269531 85.19140625 C12.08302537 80.36531232 10.0301985 75.68723248 8 71 C5.56803697 71.32426174 4.34614916 71.57717223 2.765625 73.5078125 C1.60443136 77.28761628 1.71189911 80.94425858 1.75 84.875 C1.74226562 85.66519531 1.73453125 86.45539063 1.7265625 87.26953125 C1.74216243 91.95731099 2.40323621 95.5518723 4 100 C4 101.65 4 103.3 4 105 C-3.92 105 -11.84 105 -20 105 C-19 100 -19 100 -18 97 C-17.89358159 94.35939199 -17.84275669 91.74478683 -17.83886719 89.10375977 C-17.83390228 88.3002005 -17.82893738 87.49664124 -17.82382202 86.66873169 C-17.80921262 84.00961452 -17.80240115 81.35055696 -17.796875 78.69140625 C-17.79112342 76.84439594 -17.78536569 74.99738564 -17.77960205 73.15037537 C-17.76909615 69.27757489 -17.7632505 65.40479515 -17.75976562 61.53198242 C-17.75427565 56.567421 -17.7302352 51.60313311 -17.70179367 46.63865757 C-17.68318074 42.82369685 -17.67796245 39.00880227 -17.67642975 35.19379997 C-17.67340066 33.36334675 -17.6653635 31.53289476 -17.65224457 29.70248604 C-17.63520883 27.14332284 -17.63705788 24.5848315 -17.64355469 22.02563477 C-17.6343399 21.26861771 -17.62512512 20.51160065 -17.6156311 19.73164368 C-17.65013032 15.39821735 -18.22698655 13.28094875 -21 10 C-21 8.68 -21 7.36 -21 6 C-18.44114774 4.98968935 -15.87859624 3.99159855 -13.3125 3 C-12.59126953 2.71382812 -11.87003906 2.42765625 -11.12695312 2.1328125 C-7.32670555 0.67518329 -4.14304713 -0.50698856 0 0 Z " fill="#593020" transform="translate(678,566)"/>
<path d="M0 0 C2.00503509 2.00503509 1.25588663 6.00025444 1.31640625 8.75390625 C1.33718735 9.52935287 1.35796844 10.3047995 1.37937927 11.10374451 C1.44495802 13.58990308 1.50379799 16.07617045 1.5625 18.5625 C1.60567733 20.24415204 1.64929136 21.92579294 1.69335938 23.60742188 C1.80064779 27.73816871 1.90189132 31.86902536 2 36 C2.93465088 34.80467651 2.93465088 34.80467651 3.88818359 33.58520508 C7.30565002 29.40167306 11.14676693 27.48912567 16.4609375 26.578125 C21.86145082 26.27901965 25.62409267 27.31433763 30.2109375 30.125 C36.72287606 36.94973911 36.57601392 44.44320117 36.5390625 53.36328125 C36.55085541 54.63221725 36.56264832 55.90115326 36.57479858 57.20854187 C36.6040192 60.55961542 36.6175364 63.90990636 36.62164307 67.26104736 C36.62939365 71.99750096 36.65768166 76.73372256 36.69662476 81.47001648 C36.71629817 83.98738113 36.725585 86.50485239 36.72354126 89.02229309 C36.73050018 90.15744858 36.73745911 91.29260406 36.74462891 92.4621582 C36.74588776 93.4617305 36.74714661 94.4613028 36.7484436 95.49116516 C36.82684819 98.24826971 36.82684819 98.24826971 39 101 C39 102.32 39 103.64 39 105 C31.08 105 23.16 105 15 105 C16 98 16 98 17 95 C17.10190578 93.38529598 17.14838408 91.76679207 17.16113281 90.14892578 C17.17074036 89.16425323 17.1803479 88.17958069 17.19024658 87.16506958 C17.19449646 86.10254974 17.19874634 85.04002991 17.203125 83.9453125 C17.21167511 82.30476395 17.21167511 82.30476395 17.22039795 80.631073 C17.22984787 78.31607023 17.2363819 76.00105401 17.24023438 73.68603516 C17.24994263 70.14592016 17.28096783 66.60638503 17.3125 63.06640625 C17.31902986 60.81771178 17.3242804 58.56901316 17.328125 56.3203125 C17.3404718 55.26184113 17.3528186 54.20336975 17.36553955 53.11282349 C17.4484263 46.0192229 17.4484263 46.0192229 14 40 C11.58921773 39.08234114 11.58921773 39.08234114 9 40 C4.00702129 44.87686293 1.94486933 49.60036424 1.74121094 56.65673828 C1.72809812 58.46121682 1.72642501 60.26580383 1.734375 62.0703125 C1.73246155 63.0289621 1.7305481 63.98761169 1.72857666 64.97531128 C1.72722006 66.99412296 1.73087973 69.01294353 1.73925781 71.03173828 C1.74998825 74.12161793 1.73933255 77.2109193 1.7265625 80.30078125 C1.72788373 82.26562628 1.73044536 84.23047095 1.734375 86.1953125 C1.73032654 87.11829132 1.72627808 88.04127014 1.72210693 88.99221802 C1.72841125 89.85346283 1.73471558 90.71470764 1.74121094 91.60205078 C1.74280212 92.35672638 1.74439331 93.11140198 1.74603271 93.88894653 C1.881036 96.05098425 1.881036 96.05098425 3.01617432 97.96237183 C4 100 4 100 4 105 C-3.92 105 -11.84 105 -20 105 C-19 100 -19 100 -18 98 C-17.89130714 95.3614348 -17.84268112 92.74885944 -17.83886719 90.10961914 C-17.83390228 89.29484604 -17.82893738 88.48007294 -17.82382202 87.64060974 C-17.8091877 84.9387834 -17.80239684 82.23701575 -17.796875 79.53515625 C-17.79112527 77.66190081 -17.78536752 75.7886454 -17.77960205 73.91539001 C-17.76908891 69.98533859 -17.76324807 66.05530765 -17.75976562 62.12524414 C-17.75427554 57.08320805 -17.73023789 52.04144129 -17.70179367 46.99948978 C-17.6831951 43.12966616 -17.67796321 39.25990781 -17.67642975 35.39004326 C-17.67339717 33.53085289 -17.66534835 31.67166383 -17.65224457 29.81251717 C-17.63523947 27.21472628 -17.6370504 24.61759894 -17.64355469 22.01977539 C-17.6343399 21.24824127 -17.62512512 20.47670715 -17.6156311 19.68179321 C-17.57742764 15.6066508 -17.57742764 15.6066508 -19.51055908 12.16673279 C-20.24783234 11.58920006 -20.24783234 11.58920006 -21 11 C-21.1875 8.3125 -21.1875 8.3125 -21 6 C-18.44114774 4.98968935 -15.87859624 3.99159855 -13.3125 3 C-12.59126953 2.71382812 -11.87003906 2.42765625 -11.12695312 2.1328125 C-7.32670555 0.67518329 -4.14304713 -0.50698856 0 0 Z " fill="#593121" transform="translate(368,566)"/>
<path d="M0 0 C4.41374515 4.41374515 6.2350567 8.39419549 6.31884766 14.59472656 C6.33871735 15.71558655 6.35858704 16.83644653 6.37905884 17.99127197 C6.39061005 19.19555847 6.40216125 20.39984497 6.4140625 21.640625 C6.43342865 22.87794373 6.4527948 24.11526245 6.4727478 25.39007568 C6.52237989 28.67138571 6.56366067 31.95266112 6.60089111 35.23413086 C6.64097656 38.58588276 6.69221225 41.93744345 6.7421875 45.2890625 C6.83824493 51.85926609 6.92329277 58.42954355 7 65 C8.65 65.66 10.3 66.32 12 67 C11.875 69.3125 11.875 69.3125 11 72 C6.61703368 75.34489535 1.98149828 75.613281 -3.36328125 75.50390625 C-7.72247823 74.67081527 -9.34616514 72.44281279 -12 69 C-13.546875 70.175625 -13.546875 70.175625 -15.125 71.375 C-20.63370309 75.27193826 -26.25945184 77.080649 -33 76 C-38.22143149 73.33809375 -42.3597777 69.28044461 -45 64 C-45.77612344 55.04019525 -46.40025767 46.64968554 -40.8828125 39.06640625 C-34.91288121 32.51434473 -27.78753636 28.61526611 -19.91796875 24.67578125 C-17.02031864 23.01166894 -15.05435214 21.6301563 -13 19 C-12.02138175 14.50986921 -12.20332221 10.33841869 -14.5625 6.375 C-17.91967398 4.48120955 -20.20829285 4.51741909 -24 5 C-25.79081118 6.12359581 -25.79081118 6.12359581 -27 8 C-27.43004676 10.60278969 -27.43004676 10.60278969 -27.4375 13.4375 C-27.68313693 16.93666752 -27.81953253 18.69459352 -29.625 21.75 C-33.1386954 23.59931337 -35.23998271 23.07429065 -39 22 C-41.4375 20.5625 -41.4375 20.5625 -43 18 C-43.97518833 13.55660158 -43.9632189 9.75293874 -41.7421875 5.7109375 C-32.16222348 -6.18604107 -12.83372547 -8.2103958 0 0 Z " fill="#5B3221" transform="translate(642,597)"/>
<path d="M0 0 C5.39787262 2.84615102 8.64494696 6.43800547 11.4375 11.8125 C12.78286161 19.18591596 11.68294437 25.33589107 7.44921875 31.50390625 C0.27267704 39.73951042 -9.84052618 44.270848 -19.5625 48.8125 C-19.2261509 55.3152492 -18.2457792 58.23813427 -13.5625 62.8125 C-9.30857506 65.36310797 -5.40762461 65.48079305 -0.5625 64.8125 C2.28664045 63.75095734 4.82093771 62.34769929 7.4375 60.8125 C8.76661714 60.13746678 10.09889013 59.46850749 11.4375 58.8125 C12.0975 59.4725 12.7575 60.1325 13.4375 60.8125 C13.21978199 65.71115514 11.92861021 68.40866755 8.4375 71.8125 C-0.38921094 77.47883343 -8.16210739 78.89346916 -18.5625 77.8125 C-26.50120284 74.97799609 -33.00832635 68.84077916 -36.80859375 61.359375 C-42.57997239 47.57571613 -43.89741885 32.90304196 -38.8203125 18.68359375 C-35.01816763 10.0047848 -29.81186491 3.88457837 -21.2421875 -0.328125 C-14.7419078 -2.41276281 -6.47608337 -2.17517304 0 0 Z " fill="#58301F" transform="translate(758.5625,594.1875)"/>
<path d="M0 0 C10.4119586 2.69456303 21.03164829 3.25155014 30.92163086 -1.24389648 C33.60913086 -2.24389648 33.60913086 -2.24389648 35.92163086 -2.24389648 C38.48574794 -0.08770712 40.41712899 1.74709979 41.92163086 4.75610352 C42.0730765 7.35397881 42.15300067 9.90719173 42.17163086 12.50610352 C42.19225586 13.20993164 42.21288086 13.91375977 42.23413086 14.63891602 C42.26954446 19.40204536 41.53683348 22.6248414 38.92163086 26.75610352 C36.79663086 27.88110352 36.79663086 27.88110352 33.92163086 27.75610352 C31.60586174 26.88032174 29.41405328 25.87728804 27.20288086 24.76391602 C14.79821046 19.28377053 -0.13538612 23.24616517 -12.51586914 26.75610352 C-34.40871425 32.85122704 -34.40871425 32.85122704 -41.39086914 29.06860352 C-46.57346617 26.14244535 -49.16156276 22.31971525 -51.07836914 16.75610352 C-51.816762 10.93482029 -51.90857077 5.2042433 -48.44165039 0.26000977 C-35.99874287 -13.46640684 -15.01445091 -4.30619029 0 0 Z " fill="#B67245" transform="translate(336.078369140625,467.243896484375)"/>
<path d="M0 0 C3.87414837 2.34956869 6.32874568 4.65055837 8.1875 8.875 C8.80172839 13.87657401 8.27580312 16.8716441 5.1875 20.875 C1.93923326 23.04051116 0.95655843 23.42656953 -2.8125 22.875 C-5.125 21.5 -5.125 21.5 -6.8125 18.875 C-6.96505991 16.24757934 -6.87417449 13.73988369 -6.66015625 11.1171875 C-6.71042969 10.37726562 -6.76070312 9.63734375 -6.8125 8.875 C-9.91030948 6.80979368 -10.7665481 6.58022976 -14.3125 6.5625 C-15.0859375 6.54574219 -15.859375 6.52898438 -16.65625 6.51171875 C-19.35522653 6.96643762 -20.20374976 7.68669999 -21.8125 9.875 C-22.49604329 13.90790543 -22.69933124 16.31550424 -20.6640625 19.89453125 C-16.50732895 25.03468713 -11.33773552 28.33499927 -5.8203125 31.875 C1.04610833 36.44072398 7.96378285 41.58392214 10.1875 49.875 C11.17586723 56.98084021 10.51784448 63.03287845 6.1875 68.875 C0.94065796 74.85585622 -5.11127761 77.45503969 -12.9609375 78.15625 C-21.14778593 78.38525275 -28.16941334 77.80530884 -34.6875 72.5625 C-38.75022146 67.42435227 -40.53583448 63.50556606 -39.8125 56.875 C-38.16110695 53.3363006 -37.09644771 52.06429847 -33.8125 49.875 C-27.48991935 49.4233871 -27.48991935 49.4233871 -23.8125 51.875 C-23.9775 52.555625 -24.1425 53.23625 -24.3125 53.9375 C-24.90740801 57.43258457 -25.19179963 60.33487015 -24.8125 63.875 C-22.36249553 67.26177089 -20.94857554 68.66198584 -16.8125 69.4375 C-13.15342496 68.75142343 -11.46082324 67.44765686 -8.8125 64.875 C-7.18226186 61.61452371 -7.3451465 59.49698965 -7.8125 55.875 C-11.42029985 49.51526522 -17.82377491 45.46750861 -23.74853516 41.46362305 C-30.49071337 36.88743742 -37.17535123 31.23063666 -38.8125 22.875 C-39.57152821 16.49916307 -39.08248554 11.91142046 -35.3046875 6.62890625 C-26.75199085 -3.4238707 -11.91277933 -5.52966324 0 0 Z " fill="#593120" transform="translate(815.8125,595.125)"/>
<path d="M0 0 C2.0390625 1.13671875 2.0390625 1.13671875 3.8125 2.3125 C4.823125 2.9725 5.83375 3.6325 6.875 4.3125 C9.86603826 8.94378505 9.72995515 13.94538735 8.8125 19.3125 C7.28854785 21.51687115 6.47680786 22.19016212 3.83984375 22.67578125 C-1.96527778 22.53472222 -1.96527778 22.53472222 -4.1875 20.3125 C-4.4917947 17.77815987 -4.56579847 15.27319737 -4.6484375 12.72265625 C-4.98912034 10.19267276 -4.98912034 10.19267276 -6.97265625 8.51953125 C-10.61013862 6.53719959 -13.07582659 6.92091206 -17.1875 7.3125 C-19.33530077 8.21007556 -19.33530077 8.21007556 -20.1875 10.3125 C-20.80671809 15.00086554 -20.29885034 17.86643112 -17.57641602 21.73999023 C-14.84455074 24.8329669 -11.36199781 26.93251447 -7.9375 29.1875 C9.27541497 40.95699896 9.27541497 40.95699896 11.8125 50.3125 C12.65938463 57.45205904 12.17949974 63.43830566 7.8125 69.3125 C2.66455148 75.04692367 -3.04357451 77.89532629 -10.6796875 78.6640625 C-18.95301059 78.98034648 -25.39791892 78.27619772 -32.1875 73.3125 C-36.66698132 68.72376304 -37.53110965 64.75776441 -37.48046875 58.5390625 C-37.04696619 55.24444303 -35.56200458 53.54732784 -33.1875 51.3125 C-30.41649606 49.92699803 -28.2540294 50.1247533 -25.1875 50.3125 C-24.1975 50.9725 -23.2075 51.6325 -22.1875 52.3125 C-22.3525 52.993125 -22.5175 53.67375 -22.6875 54.375 C-23.80827669 60.78532846 -23.80827669 60.78532846 -21.75 66.75 C-17.94387699 69.07080672 -14.52903806 69.07724799 -10.1875 68.3125 C-7.45688424 66.99870182 -7.45688424 66.99870182 -6.1875 64.3125 C-5.45390336 60.31106377 -5.27487167 57.97770617 -7.234375 54.40234375 C-11.48450398 49.06777465 -17.09093626 45.24816155 -22.67993164 41.43237305 C-28.52270855 37.37108733 -34.3325139 32.45307901 -36.1875 25.3125 C-36.79456083 19.27718591 -37.09994536 13.44153918 -34.6875 7.8125 C-25.3414303 -1.5335697 -12.72823671 -5.34112133 0 0 Z " fill="#59301F" transform="translate(330.1875,594.6875)"/>
<path d="M0 0 C4.12277476 3.5605782 7.60136437 6.9130046 8.3203125 12.48046875 C8.58321541 18.83395571 7.80744937 23.80913654 4 29 C-1.66796884 34.26311392 -6.26823931 34.56005369 -13.80078125 34.4296875 C-23.46422693 33.90234551 -32.96186702 31.05527586 -42.29956055 28.66430664 C-46.69767235 27.58237352 -50.77574229 26.84532748 -55.3125 26.8125 C-56.19550781 26.79832031 -57.07851563 26.78414063 -57.98828125 26.76953125 C-61.88197224 26.98276813 -61.88197224 26.98276813 -69 29 C-68.67 21.08 -68.34 13.16 -68 5 C-66.35 5.33 -64.7 5.66 -63 6 C-51.7321843 7.31421942 -40.25382439 3.29829417 -29.4140625 0.62109375 C-28.01474487 0.27921021 -28.01474487 0.27921021 -26.5871582 -0.06958008 C-24.77896451 -0.51299722 -22.97267586 -0.96427963 -21.16870117 -1.42456055 C-13.35883227 -3.35002295 -7.33641248 -3.93992522 0 0 Z " fill="#BA7547" transform="translate(732,463)"/>
<path d="M0 0 C0.71510697 -0.00241442 1.43021394 -0.00482883 2.16699082 -0.00731641 C4.53965071 -0.01290779 6.91203585 -0.00432515 9.28468323 0.00431824 C10.99537732 0.00324421 12.70607106 0.00130373 14.41676331 -0.00143433 C19.04694769 -0.00626684 23.67703515 0.00135356 28.30720782 0.01151872 C33.16233372 0.02032836 38.01745685 0.01854119 42.87258911 0.01815796 C51.02575798 0.01909348 59.17888956 0.02776148 67.33204651 0.04142761 C76.74442084 0.05714661 86.15675434 0.06242581 95.56914085 0.06169206 C105.60795641 0.06101529 115.64675632 0.06796436 125.68556714 0.07713866 C128.56988348 0.07926494 131.45419728 0.07997916 134.33851433 0.08037758 C138.88001613 0.08138606 143.42148398 0.08752383 147.96297455 0.09754372 C149.62497054 0.10045132 151.28697045 0.10169763 152.94896889 0.10111618 C174.15338718 0.09650713 174.15338718 0.09650713 178.45484924 2.24723816 C178.45484924 2.90723816 178.45484924 3.56723816 178.45484924 4.24723816 C140.65419531 14.9009602 94.60856729 9.36327529 55.66001892 9.47740173 C51.71857645 9.48915967 47.77724851 9.50737458 43.83586121 9.53123474 C39.10887868 9.55905625 34.38209296 9.57079086 29.6550312 9.57143784 C27.90503988 9.57399665 26.15504654 9.58154832 24.40510368 9.59482193 C14.95555975 9.66228733 5.78250187 9.22610824 -3.57737732 7.85173035 C-4.85765619 7.66451353 -4.85765619 7.66451353 -6.16379929 7.47351456 C-10.02522807 6.85193164 -12.215769 6.466826 -15.54515076 4.24723816 C-15.54515076 3.58723816 -15.54515076 2.92723816 -15.54515076 2.24723816 C-10.20950543 0.75841743 -5.57968364 -0.00239069 0 0 Z " fill="#E9BE8F" transform="translate(427.54515075683594,447.7527618408203)"/>
<path d="M0 0 C5.21765249 2.70916572 8.79637738 6.13381952 11.0859375 11.5859375 C13.59908796 20.97266187 13.55341313 33.27361541 9.203125 42.05078125 C6.30053552 46.75335316 3.66559573 50.65104864 -2 52 C-6.25418888 52.45580595 -8.25580086 52.48534726 -11.875 50.125 C-14.92986999 47.07013001 -14.92986999 47.07013001 -15.12025452 44.16500854 C-15.11803391 43.42332428 -15.11581329 42.68164001 -15.11352539 41.91748047 C-15.11344986 41.07675995 -15.11337433 40.23603943 -15.11329651 39.36984253 C-15.10813522 38.46146637 -15.10297394 37.55309021 -15.09765625 36.6171875 C-15.0962413 35.68778351 -15.09482635 34.75837952 -15.09336853 33.80081177 C-15.08776053 30.82550876 -15.07520668 27.85028036 -15.0625 24.875 C-15.05748603 22.86067817 -15.05292295 20.84635516 -15.04882812 18.83203125 C-15.0377885 13.88799198 -15.02051849 8.94400865 -15 4 C-9.32835137 0.68113595 -6.64555128 -0.84387953 0 0 Z " fill="#EEE7DA" transform="translate(559,619)"/>
<path d="M0 0 C5.27463581 4.38274285 9.76532614 9.9052782 11.125 16.75 C7.00584423 15.25699744 3.48588076 13.21473268 -0.25 10.9375 C-24.30372738 -3.13178144 -53.02591788 -3.55213363 -79.875 0.75 C-82.20796121 1.08592788 -84.54119336 1.41999677 -86.875 1.75 C-68.8675939 -19.39458486 -19.95520983 -14.32001768 0 0 Z " fill="#D9A470" transform="translate(529.875,307.25)"/>
<path d="M0 0 C2.71003427 -0.1358035 5.41318941 -0.23444624 8.125 -0.3125 C8.88554687 -0.35439453 9.64609375 -0.39628906 10.4296875 -0.43945312 C14.56070703 -0.52848372 17.21626391 -0.28262096 20.5234375 2.328125 C23 5 23 5 23.5 8.0625 C23.03551932 10.79132397 22.44151772 12.6575337 21 15 C21.495 15.515625 21.99 16.03125 22.5 16.5625 C24.61006839 19.99136114 24.62491523 22.04220351 24 26 C20.73433843 29.54806941 18.59949991 31.28287806 13.73046875 31.5234375 C12.2155223 31.49978699 10.70078227 31.44982555 9.1875 31.375 C8.41212891 31.36082031 7.63675781 31.34664062 6.83789062 31.33203125 C1.18362534 31.18362534 1.18362534 31.18362534 0 30 C-0.08783542 27.78144736 -0.10694609 25.56011504 -0.09765625 23.33984375 C-0.0962413 22.67537735 -0.09482635 22.01091095 -0.09336853 21.3263092 C-0.08775518 19.19666101 -0.07520054 17.06711661 -0.0625 14.9375 C-0.05748671 13.49674631 -0.05292351 12.05599097 -0.04882812 10.61523438 C-0.03778145 7.07678898 -0.02050792 3.53840461 0 0 Z " fill="#5B3221" transform="translate(414,710)"/>
<path d="M0 0 C7.38241976 1.93313021 14.85786963 3.13767263 22.39379883 4.3137207 C23.33795654 4.46744141 24.28211426 4.62116211 25.25488281 4.77954102 C26.09978271 4.91118652 26.94468262 5.04283203 27.81518555 5.1784668 C29.88378906 5.70922852 29.88378906 5.70922852 31.88378906 7.70922852 C22.66036728 10.8766671 13.54622069 11.48704426 3.88378906 11.70922852 C2.25328613 11.75007568 2.25328613 11.75007568 0.58984375 11.79174805 C-3.02054348 11.87053635 -6.63019162 11.91973602 -10.24121094 11.95922852 C-11.9843457 11.99149536 -11.9843457 11.99149536 -13.76269531 12.02441406 C-20.00175251 12.04843135 -24.63152984 11.78562188 -30.11621094 8.70922852 C-30.44621094 8.37922852 -30.77621094 8.04922852 -31.11621094 7.70922852 C-30.76559899 1.3982134 -30.76559899 1.3982134 -28.51464844 -0.98999023 C-20.51768301 -5.32710666 -8.39630085 -2.21086619 0 0 Z " fill="#E7BC8B" transform="translate(322.1162109375,468.290771484375)"/>
<path d="M0 0 C0.75603516 -0.03738281 1.51207031 -0.07476563 2.29101562 -0.11328125 C6.36304911 -0.17685159 9.04617331 0.10814694 12.32421875 2.6484375 C14.8125 5.375 14.8125 5.375 15.5390625 7.4375 C15.28565477 12.27173985 14.37307861 14.81442139 10.8125 18.375 C11.93701727 21.3469385 13.03543791 23.70940687 14.8125 26.375 C14.9375 29.0625 14.9375 29.0625 14.8125 31.375 C12.53125 31.68359375 12.53125 31.68359375 9.8125 31.375 C7.96875 29.22265625 7.96875 29.22265625 6.3125 26.4375 C4.06235905 22.43836995 4.06235905 22.43836995 0.09375 20.55859375 C-1.03546875 20.46771484 -1.03546875 20.46771484 -2.1875 20.375 C-2.17589844 21.08527344 -2.16429687 21.79554688 -2.15234375 22.52734375 C-2.13880859 23.90599609 -2.13880859 23.90599609 -2.125 25.3125 C-2.11339844 26.22902344 -2.10179687 27.14554688 -2.08984375 28.08984375 C-2.1875 30.375 -2.1875 30.375 -3.1875 31.375 C-5.6875 31.5 -5.6875 31.5 -8.1875 31.375 C-10.04464057 29.51785943 -9.31798681 26.44992951 -9.3203125 23.96875 C-9.32160156 22.66808594 -9.32289063 21.36742187 -9.32421875 20.02734375 C-9.32212402 19.34655762 -9.3200293 18.66577148 -9.31787109 17.96435547 C-9.3125224 15.88371485 -9.3178168 13.80329011 -9.32421875 11.72265625 C-9.32292969 10.42199219 -9.32164062 9.12132812 -9.3203125 7.78125 C-9.31918457 6.57791016 -9.31805664 5.37457031 -9.31689453 4.13476562 C-9.0553572 -1.44338163 -4.51754208 0.08261507 0 0 Z " fill="#613827" transform="translate(566.1875,709.625)"/>
<path d="M0 0 C0.33 0 0.66 0 1 0 C1.84268965 4.90613836 2.67856235 9.81337563 3.50854492 14.72167969 C3.79092199 16.38604902 4.07505556 18.05012146 4.36108398 19.71386719 C5.97820137 29.12769937 7.46026408 38.44845349 8 48 C3.95314619 50.02342691 -1.10405804 49.53723561 -5.37109375 48.328125 C-7.27045373 47.6103633 -9.13900743 46.81206948 -11 46 C-10.28923895 40.29073465 -9.09913567 34.77780977 -7.75 29.1875 C-7.53255127 28.27911377 -7.31510254 27.37072754 -7.09106445 26.43481445 C-4.94105055 17.56263446 -2.51756367 8.77397721 0 0 Z " fill="#EBE3D8" transform="translate(253,586)"/>
<path d="M0 0 C1.4540625 0.0309375 1.4540625 0.0309375 2.9375 0.0625 C6.02552473 5.86962616 8.75718011 11.79231036 11.25 17.875 C11.51635254 18.50865479 11.78270508 19.14230957 12.05712891 19.79516602 C13.47915254 23.33155111 14.35400978 26.24331709 13.9375 30.0625 C12.9375 31.0625 12.9375 31.0625 10.375 31.125 C9.570625 31.104375 8.76625 31.08375 7.9375 31.0625 C7.2775 28.7525 6.6175 26.4425 5.9375 24.0625 C1.9775 24.0625 -1.9825 24.0625 -6.0625 24.0625 C-6.7225 26.0425 -7.3825 28.0225 -8.0625 30.0625 C-9.7125 30.3925 -11.3625 30.7225 -13.0625 31.0625 C-14.34706512 26.7087525 -13.7179216 24.29421819 -12.0078125 20.140625 C-11.55792969 19.03332031 -11.10804688 17.92601562 -10.64453125 16.78515625 C-9.92330078 15.06619141 -9.92330078 15.06619141 -9.1875 13.3125 C-8.71441406 12.15105469 -8.24132812 10.98960937 -7.75390625 9.79296875 C-3.76517988 0.07684041 -3.76517988 0.07684041 0 0 Z " fill="#5E3523" transform="translate(462.0625,709.9375)"/>
<path d="M0 0 C2.5 0.125 2.5 0.125 3.5 1.125 C3.73363881 2.97391946 3.91303635 4.82988031 4.0625 6.6875 C4.14628906 7.69941406 4.23007812 8.71132813 4.31640625 9.75390625 C4.37699219 10.53636719 4.43757813 11.31882812 4.5 12.125 C5.12648438 11.42632813 5.75296875 10.72765625 6.3984375 10.0078125 C7.21570313 9.09773437 8.03296875 8.18765625 8.875 7.25 C9.68710937 6.34507812 10.49921875 5.44015625 11.3359375 4.5078125 C12.69076205 3.01603817 14.07505435 1.54994565 15.5 0.125 C18.125 0 18.125 0 20.5 0.125 C20.5 4.125 20.5 4.125 18.75 6.265625 C18.0075 6.96171875 17.265 7.6578125 16.5 8.375 C15.7575 9.08140625 15.015 9.7878125 14.25 10.515625 C13.38375 11.31226563 13.38375 11.31226563 12.5 12.125 C14.17096554 16.94280928 16.80899512 20.05588022 20.13671875 23.84375 C21.5 26.125 21.5 26.125 21.20703125 28.90625 C20.97371094 29.6384375 20.74039062 30.370625 20.5 31.125 C17.03375469 30.83968734 15.73725656 30.36722529 13.26171875 27.83984375 C12.57722656 26.92332031 11.89273437 26.00679687 11.1875 25.0625 C10.49011719 24.14339844 9.79273438 23.22429688 9.07421875 22.27734375 C8.55472656 21.56707031 8.03523438 20.85679687 7.5 20.125 C6.51 20.455 5.52 20.785 4.5 21.125 C4.43941406 21.76308594 4.37882812 22.40117188 4.31640625 23.05859375 C4.19072266 24.29802734 4.19072266 24.29802734 4.0625 25.5625 C3.98128906 26.38621094 3.90007812 27.20992187 3.81640625 28.05859375 C3.5 30.125 3.5 30.125 2.5 31.125 C0 31.25 0 31.25 -2.5 31.125 C-4.35714057 29.26785943 -3.63048681 26.19992951 -3.6328125 23.71875 C-3.63410156 22.41808594 -3.63539063 21.11742187 -3.63671875 19.77734375 C-3.63462402 19.09655762 -3.6325293 18.41577148 -3.63037109 17.71435547 C-3.6250224 15.63371485 -3.6303168 13.55329011 -3.63671875 11.47265625 C-3.63542969 10.17199219 -3.63414062 8.87132812 -3.6328125 7.53125 C-3.63168457 6.32791016 -3.63055664 5.12457031 -3.62939453 3.88476562 C-3.45535358 0.17276768 -3.45535358 0.17276768 0 0 Z " fill="#613928" transform="translate(490.5,709.875)"/>
<path d="M0 0 C4.25788015 0.88705836 5.57735169 1.99102753 8 5.625 C9.06218263 11.10723291 8.76121403 16.05932294 5.9375 20.9375 C2.04765048 26.31496903 -3.10206593 30.59177677 -9 33.625 C-9.66 33.625 -10.32 33.625 -11 33.625 C-11.67737003 10.59441896 -11.67737003 10.59441896 -5.6875 2.5 C-3 0.625 -3 0.625 0 0 Z " fill="#EBE4D9" transform="translate(747,600.375)"/>
<path d="M0 0 C15.71511132 2.88110374 30.47201466 9.9907082 40.3828125 22.78515625 C43.32850606 27.30669288 43.5284659 30.80341867 43 36 C42.34 36.66 41.68 37.32 41 38 C38.03645279 37.81267692 36.45009638 37.3898243 34.19140625 35.43359375 C33.65386719 34.77488281 33.11632812 34.11617188 32.5625 33.4375 C31.96566406 32.71433594 31.36882813 31.99117188 30.75390625 31.24609375 C29.14242544 29.18239339 27.56095225 27.10208236 26 25 C20.07820085 17.05272908 13.83337123 11.07441577 5.890625 5.19921875 C3.72453266 3.55123228 1.83231022 1.99360513 0 0 Z " fill="#D8A06C" transform="translate(556,298)"/>
<path d="M0 0 C1.18613892 0.00785522 1.18613892 0.00785522 2.39624023 0.01586914 C3.67724609 0.02070312 3.67724609 0.02070312 4.98413086 0.02563477 C5.88196289 0.03401367 6.77979492 0.04239258 7.70483398 0.05102539 C8.6065332 0.05553711 9.50823242 0.06004883 10.43725586 0.06469727 C12.67234712 0.07652315 14.90730835 0.09300319 17.14233398 0.11352539 C17.47233398 1.76352539 17.80233398 3.41352539 18.14233398 5.11352539 C15.25817516 6.5556048 12.7251187 6.20747426 9.51733398 6.17602539 C8.32881836 6.16700195 7.14030273 6.15797852 5.91577148 6.14868164 C5.00053711 6.13708008 4.08530273 6.12547852 3.14233398 6.11352539 C3.14233398 8.09352539 3.14233398 10.07352539 3.14233398 12.11352539 C7.10233398 12.11352539 11.06233398 12.11352539 15.14233398 12.11352539 C15.47233398 13.76352539 15.80233398 15.41352539 16.14233398 17.11352539 C15.14233398 18.11352539 15.14233398 18.11352539 12.41967773 18.21118164 C11.3175293 18.19958008 10.21538086 18.18797852 9.07983398 18.17602539 C7.42274414 18.16249023 7.42274414 18.16249023 5.73217773 18.14868164 C4.8775293 18.13708008 4.02288086 18.12547852 3.14233398 18.11352539 C3.14233398 20.42352539 3.14233398 22.73352539 3.14233398 25.11352539 C7.76233398 25.11352539 12.38233398 25.11352539 17.14233398 25.11352539 C17.47233398 26.76352539 17.80233398 28.41352539 18.14233398 30.11352539 C16.58626648 31.6695929 15.08276027 31.24323308 12.92358398 31.24633789 C11.6493457 31.24827148 11.6493457 31.24827148 10.34936523 31.25024414 C9.00938477 31.24444336 9.00938477 31.24444336 7.64233398 31.23852539 C6.74901367 31.24239258 5.85569336 31.24625977 4.93530273 31.25024414 C4.08581055 31.24895508 3.23631836 31.24766602 2.36108398 31.24633789 C1.57668945 31.24520996 0.79229492 31.24408203 -0.01586914 31.24291992 C-1.85766602 31.11352539 -1.85766602 31.11352539 -2.85766602 30.11352539 C-2.95769891 27.97999365 -2.98847649 25.84314997 -2.99047852 23.70727539 C-2.99176758 22.40661133 -2.99305664 21.10594727 -2.99438477 19.76586914 C-2.99229004 19.08508301 -2.99019531 18.40429688 -2.98803711 17.70288086 C-2.98268842 15.62224024 -2.98798282 13.5418155 -2.99438477 11.46118164 C-2.9930957 10.16051758 -2.99180664 8.85985352 -2.99047852 7.51977539 C-2.98935059 6.31643555 -2.98822266 5.1130957 -2.98706055 3.87329102 C-2.81351876 0.17193931 -2.81351876 0.17193931 0 0 Z " fill="#653C2A" transform="translate(526.857666015625,709.886474609375)"/>
<path d="M0 0 C0.0872253 4.39570794 0.14046869 8.79119271 0.1875 13.1875 C0.21263672 14.43337891 0.23777344 15.67925781 0.26367188 16.96289062 C0.27333984 18.16494141 0.28300781 19.36699219 0.29296875 20.60546875 C0.3086792 21.71043701 0.32438965 22.81540527 0.34057617 23.95385742 C-0.04345124 27.38863166 -0.97150479 29.23122329 -3 32 C-5.95180724 34.06626507 -8.43659405 34.45684692 -12 34 C-14.5048111 32.12139167 -14.98700625 31.03898126 -16 28 C-16.87814841 20.59687544 -16.52333971 15.06917503 -11.9296875 9.046875 C-3.40076336 0 -3.40076336 0 0 0 Z " fill="#EFE6DA" transform="translate(630,627)"/>
<path d="M0 0 C2.625 -0.625 2.625 -0.625 6 0 C8.67315847 3.3233862 12 7.60382475 12 12 C15.20955148 9.06582424 17.12848002 5.59137439 19.3046875 1.86328125 C21 0 21 0 23.6953125 -0.26953125 C24.83613281 -0.13611328 24.83613281 -0.13611328 26 0 C26 4.80072516 24.24338599 6.79649229 21.5625 10.5 C17.60335768 16.23181343 16 20.65744068 16 27.76953125 C16 28.50558594 16 29.24164062 16 30 C15 31 15 31 12.5 31.125 C10 31 10 31 9 30 C8.97287847 28.083412 8.95354903 26.1667127 8.9375 24.25 C8.48239648 16.87894838 5.84501274 12.64958753 1.71484375 6.77734375 C0 4 0 4 0 0 Z " fill="#633928" transform="translate(590,710)"/>
<path d="M0 0 C0.77943466 0.00222061 1.55886932 0.00444122 2.36192322 0.00672913 C3.68317955 0.00684242 3.68317955 0.00684242 5.03112793 0.00695801 C5.98841293 0.01211929 6.94569794 0.01728058 7.93199158 0.02259827 C9.39480812 0.02472069 9.39480812 0.02472069 10.88717651 0.02688599 C14.01542675 0.03250319 17.14360656 0.04505859 20.27183533 0.05775452 C22.38706867 0.0627673 24.50230313 0.06733059 26.61753845 0.07142639 C31.81482829 0.0824782 37.01207678 0.09923305 42.20933533 0.12025452 C42.77183533 2.05775452 42.77183533 2.05775452 43.20933533 4.12025452 C42.20933533 5.12025452 42.20933533 5.12025452 40.41867065 5.24050903 C39.63923599 5.23828842 38.85980133 5.23606781 38.05674744 5.23377991 C37.17590988 5.23370438 36.29507233 5.23362885 35.38754272 5.23355103 C34.43025772 5.22838974 33.47297272 5.22322845 32.48667908 5.21791077 C31.51146805 5.21649582 30.53625702 5.21508087 29.53149414 5.21362305 C26.4032439 5.20800584 23.27506409 5.19545044 20.14683533 5.18275452 C18.03160198 5.17774173 15.91636752 5.17317844 13.8011322 5.16908264 C8.60384237 5.15803083 3.40659388 5.14127598 -1.79066467 5.12025452 C-2.35316467 3.18275452 -2.35316467 3.18275452 -2.79066467 1.12025452 C-1.79066467 0.12025452 -1.79066467 0.12025452 0 0 Z " fill="#5E3422" transform="translate(346.79066467285156,722.8797454833984)"/>
<path d="M0 0 C14.85 0 29.7 0 45 0 C44.67 1.65 44.34 3.3 44 5 C29.81 5 15.62 5 1 5 C0.67 3.35 0.34 1.7 0 0 Z " fill="#5E3422" transform="translate(636,723)"/>
<path d="M0 0 C0.66 1.32 1.32 2.64 2 4 C-4.68212325 10.86272117 -4.68212325 10.86272117 -9 11.3125 C-12 11 -12 11 -13.9375 9.75 C-15 8 -15 8 -15 6 C-12.10192372 0.20384744 -5.68846417 -0.10534193 0 0 Z " fill="#5B3422" transform="translate(442,334)"/>
<path d="M0 0 C3.65402776 0.20300154 4.96636714 0.97018906 7.75 3.4375 C11.05198724 7.19809658 11.10721593 9.06806732 11 14 C9.23046875 14.67578125 9.23046875 14.67578125 7 15 C5.11328125 13.85546875 5.11328125 13.85546875 3.3125 12.1875 C2.71050781 11.64480469 2.10851562 11.10210937 1.48828125 10.54296875 C-0.73875479 8.23409936 -0.99163674 7.20489981 -1.125 3.9375 C-1 1 -1 1 0 0 Z " fill="#573120" transform="translate(491,353)"/>
<path d="M0 0 C6.78923402 0.56843823 13.36081438 2.07927768 20 3.5625 C21.06089844 3.79646484 22.12179687 4.03042969 23.21484375 4.27148438 C25.81062894 4.84442795 28.40563354 5.42067235 31 6 C30.67 6.66 30.34 7.32 30 8 C23.63282539 9.75318824 17.43780706 8.7114738 11.125 7.3125 C10.28453125 7.15072266 9.4440625 6.98894531 8.578125 6.82226562 C2.50988042 5.52815915 2.50988042 5.52815915 -0.0703125 2.85546875 C-0.37710937 2.24316406 -0.68390625 1.63085938 -1 1 C-0.67 0.67 -0.34 0.34 0 0 Z " fill="#BA784C" transform="translate(319,464)"/>
<path d="M0 0 C1.29550781 -0.03867187 1.29550781 -0.03867187 2.6171875 -0.078125 C5.57524649 0.30891076 6.91701784 1.29875995 9.125 3.25 C8.795 4.9 8.465 6.55 8.125 8.25 C3.26452175 9.24369777 0.15381048 9.73733128 -4.4375 7.5625 C-5.241875 6.799375 -6.04625 6.03625 -6.875 5.25 C-6.875 3.93 -6.875 2.61 -6.875 1.25 C-4.43545342 0.03022671 -2.72194151 0.04846187 0 0 Z " fill="#572F1F" transform="translate(459.875,372.75)"/>
<path d="M0 0 C6.95280228 1.12053451 13.07633457 2.91755942 19.4375 5.9375 C20.66702393 6.51987427 20.66702393 6.51987427 21.92138672 7.11401367 C29.26706953 10.78975564 35.08357924 15.35760174 40 22 C40.7734375 24.32421875 40.7734375 24.32421875 41 26 C39.700625 24.824375 39.700625 24.824375 38.375 23.625 C26.556807 13.58665534 14.39167811 6.65873166 0 1 C0 0.67 0 0.34 0 0 Z " fill="#D39461" transform="translate(520,293)"/>
<path d="M0 0 C3.34354588 0.77618029 4.51559292 1.12771395 6.5 3.8125 C5.13016497 6.97365776 4.5109362 7.8052092 1.5 9.8125 C-4.95283019 9.35966981 -4.95283019 9.35966981 -7.5 6.8125 C-7.3125 4.3125 -7.3125 4.3125 -6.5 1.8125 C-3.5 -0.1875 -3.5 -0.1875 0 0 Z " fill="#59301F" transform="translate(466.5,350.1875)"/>
<path d="M0 0 C3.875 0.875 3.875 0.875 5 2 C5.37927169 6.93053201 5.20076124 10.11336136 2 14 C-0.1875 14.8125 -0.1875 14.8125 -2 15 C-4.35620437 11.46569344 -4.48991613 10.16428713 -4 6 C-2 2.625 -2 2.625 0 0 Z " fill="#59311F" transform="translate(426,402)"/>
<path d="M0 0 C3.44442569 0.18618517 4.78029427 0.79217026 7.3125 3.1875 C9.27593327 6.45988878 9.41691743 8.24774309 9 12 C8.67 12.66 8.34 13.32 8 14 C5.12503635 13.68919312 3.43410388 13.38759275 1.25 11.4375 C-0.54732164 7.9327228 -0.74225087 4.93067431 -1 1 C-0.67 0.67 -0.34 0.34 0 0 Z " fill="#552E1D" transform="translate(486,384)"/>
<path d="M0 0 C3.875 0.875 3.875 0.875 5 2 C5.375 4.75 5.375 4.75 5 8 C2.58447681 11.10567268 0.98995534 12.7140129 -2.8125 13.8125 C-3.534375 13.874375 -4.25625 13.93625 -5 14 C-4.7444669 8.13551546 -4.34242429 4.34242429 0 0 Z " fill="#522D1C" transform="translate(469,401)"/>
<path d="M0 0 C1.91015625 0.23046875 1.91015625 0.23046875 3.91015625 2.23046875 C4.03515625 5.35546875 4.03515625 5.35546875 3.91015625 8.23046875 C1.50469987 9.43319694 -0.03981328 9.33118347 -2.71484375 9.29296875 C-3.94074219 9.27943359 -3.94074219 9.27943359 -5.19140625 9.265625 C-6.13113281 9.24822266 -6.13113281 9.24822266 -7.08984375 9.23046875 C-7.1875 3.078125 -7.1875 3.078125 -7.08984375 1.23046875 C-5.19495423 -0.66442077 -2.51845229 0.05027763 0 0 Z " fill="#EBE4D6" transform="translate(570.08984375,714.76953125)"/>
<path d="M0 0 C0.8146875 0.00257813 1.629375 0.00515625 2.46875 0.0078125 C3.2834375 0.00523437 4.098125 0.00265625 4.9375 0 C6.96875 0.1328125 6.96875 0.1328125 7.96875 1.1328125 C8.09375 4.1328125 8.09375 4.1328125 7.96875 7.1328125 C6.96875 8.1328125 6.96875 8.1328125 4.9375 8.265625 C4.1228125 8.26304687 3.308125 8.26046875 2.46875 8.2578125 C1.6540625 8.26039063 0.839375 8.26296875 0 8.265625 C-2.03125 8.1328125 -2.03125 8.1328125 -3.03125 7.1328125 C-3.15625 4.1328125 -3.15625 4.1328125 -3.03125 1.1328125 C-2.03125 0.1328125 -2.03125 0.1328125 0 0 Z " fill="#EBE4D9" transform="translate(423.03125,727.8671875)"/>
<path d="M0 0 C2.97522273 0.234886 4.57052913 0.61495715 6.8125 2.625 C8.41568775 5.8313755 8.20379759 8.46750852 8 12 C7.01 12.33 6.02 12.66 5 13 C1.63638169 10.15386143 0.14187069 8.60801723 -0.875 4.25 C-0.91625 3.1775 -0.9575 2.105 -1 1 C-0.67 0.67 -0.34 0.34 0 0 Z " fill="#57301F" transform="translate(442,390)"/>
<path d="M0 0 C0.556875 0.268125 1.11375 0.53625 1.6875 0.8125 C2.05673077 7.2125 2.05673077 7.2125 0.1875 10.25 C-0.3075 10.765625 -0.8025 11.28125 -1.3125 11.8125 C-6.1875 10.9375 -6.1875 10.9375 -7.3125 9.8125 C-7.6875 7.5625 -7.6875 7.5625 -7.3125 4.8125 C-3.33459945 -0.27037293 -3.33459945 -0.27037293 0 0 Z " fill="#4E2A1B" transform="translate(421.3125,379.1875)"/>
<path d="M0 0 C1.0828125 0.37125 1.0828125 0.37125 2.1875 0.75 C1.70204933 7.18222143 1.70204933 7.18222143 -0.625 9.75 C-2.8125 10.75 -2.8125 10.75 -5 10.5 C-6.8125 9.75 -6.8125 9.75 -7.8125 8.75 C-8.1875 6.4375 -8.1875 6.4375 -7.8125 3.75 C-5.17968173 0.89151159 -3.95233493 -0.35131866 0 0 Z " fill="#5B3321" transform="translate(412.8125,357.25)"/>
<path d="M0 0 C3.125 0.25 3.125 0.25 5 1.4375 C6.48866316 3.83590175 6.41678308 5.47806071 6.125 8.25 C5.125 9.25 5.125 9.25 2.25 9.5 C-0.875 9.25 -0.875 9.25 -2.75 8.0625 C-4.23866316 5.66409825 -4.16678308 4.02193929 -3.875 1.25 C-2.875 0.25 -2.875 0.25 0 0 Z " fill="#583221" transform="translate(486.875,415.75)"/>
<path d="M0 0 C0.125 2.375 0.125 2.375 0 5 C-2 7 -2 7 -4.1640625 7.1953125 C-5.38222656 7.16050781 -5.38222656 7.16050781 -6.625 7.125 C-7.44226563 7.10695313 -8.25953125 7.08890625 -9.1015625 7.0703125 C-9.72804688 7.04710937 -10.35453125 7.02390625 -11 7 C-11.33 6.01 -11.66 5.02 -12 4 C-7.62086703 -0.52510407 -6.25424506 -1.22365664 0 0 Z " fill="#542E1D" transform="translate(439,356)"/>
<path d="M0 0 C7.38461538 -0.36923077 7.38461538 -0.36923077 10.5 1.5 C10.995 1.995 11.49 2.49 12 3 C11.67 4.32 11.34 5.64 11 7 C5.97745369 7.2954439 3.10457614 6.98514628 -1 4 C-0.67 2.68 -0.34 1.36 0 0 Z " fill="#572E1D" transform="translate(468,333)"/>
<path d="M0 0 C3.5625 0.1875 3.5625 0.1875 5.5625 2.1875 C5.00694444 6.74305556 5.00694444 6.74305556 3.5625 8.1875 C0.89191149 8.32865161 -1.76182238 8.22997107 -4.4375 8.1875 C-4.47991723 5.85455225 -4.47842937 3.52047433 -4.4375 1.1875 C-3.4375 0.1875 -3.4375 0.1875 0 0 Z " fill="#EAE3D6" transform="translate(424.4375,714.8125)"/>
<path d="M0 0 C2.4375 0.75 2.4375 0.75 4.4375 2.75 C3.88194444 7.30555556 3.88194444 7.30555556 2.4375 8.75 C-4.2825 8.03 -4.2825 8.03 -5.5625 6.75 C-5.8125 4.3125 -5.8125 4.3125 -5.5625 1.75 C-2.5625 -0.25 -2.5625 -0.25 0 0 Z " fill="#5D3624" transform="translate(448.5625,420.25)"/>
<path d="M0 0 C0.94488281 0.09023438 1.88976562 0.18046875 2.86328125 0.2734375 C5.50910962 0.60279373 8.08180884 1.06494252 10.6875 1.625 C10.3575 2.285 10.0275 2.945 9.6875 3.625 C2.59963024 4.99684576 -3.3157029 4.20745318 -10.3125 2.625 C-6.23004162 -0.09663892 -4.82410016 -0.4830628 0 0 Z " fill="#C07F52" transform="translate(339.3125,468.375)"/>
<path d="M0 0 C0.66 0 1.32 0 2 0 C2.99 3.3 3.98 6.6 5 10 C2.36 10 -0.28 10 -3 10 C-2.39009109 6.44219804 -1.4216319 3.3171411 0 0 Z " fill="#D8CBBD" transform="translate(461,719)"/>
<path d="M0 0 C1.32 0 2.64 0 4 0 C4 4.95 4 9.9 4 15 C3.67 15 3.34 15 3 15 C2.67 13.02 2.34 11.04 2 9 C1.34 9.66 0.68 10.32 0 11 C0 7.37 0 3.74 0 0 Z " fill="#5A3424" transform="translate(391,471)"/>
<path d="M0 0 C1.91015625 0.23046875 1.91015625 0.23046875 3.91015625 2.23046875 C4.03515625 4.85546875 4.03515625 4.85546875 3.91015625 7.23046875 C3.63171875 6.27140625 3.63171875 6.27140625 3.34765625 5.29296875 C1.96769569 2.80920662 1.96769569 2.80920662 -1.71484375 2.48046875 C-2.82859375 2.39796875 -3.94234375 2.31546875 -5.08984375 2.23046875 C-5.08984375 4.54046875 -5.08984375 6.85046875 -5.08984375 9.23046875 C-5.74984375 9.23046875 -6.40984375 9.23046875 -7.08984375 9.23046875 C-7.1875 3.078125 -7.1875 3.078125 -7.08984375 1.23046875 C-5.19495423 -0.66442077 -2.51845229 0.05027763 0 0 Z " fill="#D6CBBC" transform="translate(570.08984375,714.76953125)"/>
<path d="M0 0 C1.08861328 0.13921875 1.08861328 0.13921875 2.19921875 0.28125 C2.19921875 1.27125 2.19921875 2.26125 2.19921875 3.28125 C0.87921875 3.28125 -0.44078125 3.28125 -1.80078125 3.28125 C-3.79418403 4.79141072 -3.79418403 4.79141072 -5.55078125 6.78125 C-6.164375 7.4309375 -6.77796875 8.080625 -7.41015625 8.75 C-7.8690625 9.2553125 -8.32796875 9.760625 -8.80078125 10.28125 C-9.79078125 9.95125 -10.78078125 9.62125 -11.80078125 9.28125 C-10.42113702 7.76634654 -9.02137808 6.26974387 -7.61328125 4.78125 C-6.83597656 3.9459375 -6.05867188 3.110625 -5.2578125 2.25 C-2.80078125 0.28125 -2.80078125 0.28125 0 0 Z " fill="#64402F" transform="translate(508.80078125,709.71875)"/>
<path d="M0 0 C1.134375 0.020625 2.26875 0.04125 3.4375 0.0625 C3.4375 0.7225 3.4375 1.3825 3.4375 2.0625 C1.4575 2.0625 -0.5225 2.0625 -2.5625 2.0625 C-2.5625 3.7125 -2.5625 5.3625 -2.5625 7.0625 C-0.5825 7.0625 1.3975 7.0625 3.4375 7.0625 C3.4375 7.3925 3.4375 7.7225 3.4375 8.0625 C0.7975 8.0625 -1.8425 8.0625 -4.5625 8.0625 C-4.60491723 5.72955225 -4.60342937 3.39547433 -4.5625 1.0625 C-3.5625 0.0625 -3.5625 0.0625 0 0 Z " fill="#D1C5B7" transform="translate(424.5625,714.9375)"/>
<path d="M0 0 C0.33 1.32 0.66 2.64 1 4 C-2.96 4.66 -6.92 5.32 -11 6 C-7.92832129 2.92832129 -4.55956968 0 0 0 Z " fill="#CF9B6C" transform="translate(454,303)"/>
<path d="M0 0 C0.33 0 0.66 0 1 0 C1.4726477 8.19256018 1.4726477 8.19256018 -0.5 11.5625 C-0.995 12.036875 -1.49 12.51125 -2 13 C-2.05447047 11.58376784 -2.09300508 10.16691809 -2.125 8.75 C-2.14820313 7.96109375 -2.17140625 7.1721875 -2.1953125 6.359375 C-1.9828378 3.79268059 -1.28654105 2.2083933 0 0 Z " fill="#432419" transform="translate(393,478)"/>
<path d="M0 0 C10.55808656 1.92710706 10.55808656 1.92710706 15 4 C14.01 4.66 13.02 5.32 12 6 C9.08203125 5.1015625 9.08203125 5.1015625 5.8125 3.625 C4.72582031 3.14289063 3.63914062 2.66078125 2.51953125 2.1640625 C1.68808594 1.77992188 0.85664062 1.39578125 0 1 C0 0.67 0 0.34 0 0 Z " fill="#BC8254" transform="translate(520,293)"/>
<path d="M0 0 C0.66 0 1.32 0 2 0 C2.33 1.65 2.66 3.3 3 5 C5.31 5.33 7.62 5.66 10 6 C10 6.33 10 6.66 10 7 C8.52093108 7.02689216 7.04172517 7.04634621 5.5625 7.0625 C4.32693359 7.07990234 4.32693359 7.07990234 3.06640625 7.09765625 C1 7 1 7 0 6 C-0.04080783 4.00041636 -0.04254356 1.99954746 0 0 Z " fill="#CCBFB4" transform="translate(420,729)"/>
<path d="M0 0 C0.33 0 0.66 0 1 0 C1.33 2.97 1.66 5.94 2 9 C0.68 9.33 -0.64 9.66 -2 10 C-1.34 6.7 -0.68 3.4 0 0 Z " fill="#E1D4C7" transform="translate(253,586)"/>
<path d="M0 0 C4.455 0.99 4.455 0.99 9 2 C8.67 3.32 8.34 4.64 8 6 C6.66402348 5.19185349 5.331275 4.37836819 4 3.5625 C3.2575 3.11003906 2.515 2.65757812 1.75 2.19140625 C1.1725 1.79824219 0.595 1.40507812 0 1 C0 0.67 0 0.34 0 0 Z " fill="#CA9160" transform="translate(556,298)"/>
<path d="M0 0 C0.99 0.33 1.98 0.66 3 1 C0.69 3.31 -1.62 5.62 -4 8 C-4.33 7.01 -4.66 6.02 -5 5 C-3.35 3.35 -1.7 1.7 0 0 Z " fill="#4B2212" transform="translate(287,457)"/>
<path d="M0 0 C0 0.66 0 1.32 0 2 C-0.66 2 -1.32 2 -2 2 C-2 2.99 -2 3.98 -2 5 C-3.32 4.67 -4.64 4.34 -6 4 C-6 3.01 -6 2.02 -6 1 C-4 0 -4 0 0 0 Z " fill="#694432" transform="translate(319,526)"/>
<path d="M0 0 C0.99 0.33 1.98 0.66 3 1 C-0.465 3.97 -0.465 3.97 -4 7 C-3.04065919 3.16263678 -2.76390737 2.40339772 0 0 Z " fill="#532B1A" transform="translate(785,597)"/>
</svg>
