<?xml version="1.0" standalone="no"?>
<!DOCTYPE svg PUBLIC "-//W3C//DTD SVG 20010904//EN"
 "http://www.w3.org/TR/2001/REC-SVG-20010904/DTD/svg10.dtd">
<svg version="1.0" xmlns="http://www.w3.org/2000/svg"
 width="1024.000000pt" height="1024.000000pt" viewBox="0 0 1024.000000 1024.000000"
 preserveAspectRatio="xMidYMid meet">

<g transform="translate(0.000000,1024.000000) scale(0.100000,-0.100000)"
fill="#000000" stroke="none">
<path d="M4839 7375 c-336 -54 -611 -186 -814 -390 -100 -100 -155 -185 -187
-288 -46 -153 4 -309 125 -382 13 -8 21 -49 37 -192 11 -101 20 -192 20 -203
0 -19 -6 -20 -89 -20 -95 0 -135 -10 -194 -48 -42 -28 -111 -126 -128 -182
-10 -34 -16 -38 -51 -43 -54 -7 -145 7 -308 48 -210 53 -309 47 -391 -24 -156
-133 -99 -400 97 -457 73 -21 121 -15 321 36 158 41 221 47 284 30 31 -9 37
-15 48 -58 12 -50 45 -107 88 -153 l24 -26 -118 -7 c-658 -38 -621 -95 82
-125 617 -26 2675 -20 3095 9 345 24 431 55 234 85 -49 7 -179 19 -289 25
-110 7 -201 14 -203 15 -2 2 12 24 32 49 19 26 43 71 52 101 17 53 20 56 71
75 76 28 117 25 297 -20 88 -22 182 -43 211 -46 170 -20 308 120 292 296 -12
139 -113 229 -258 230 -44 0 -119 -13 -230 -41 -176 -44 -272 -53 -327 -30
-24 10 -39 28 -61 75 -35 71 -96 137 -155 166 -33 16 -62 20 -134 20 -50 0
-93 3 -95 8 -2 4 9 95 24 202 l28 195 33 25 c112 86 151 205 114 350 -78 305
-442 579 -899 676 -107 23 -151 26 -357 30 -169 2 -259 -1 -321 -11z m464 -94
c105 -37 194 -91 253 -153 30 -33 53 -63 50 -65 -3 -3 -33 19 -67 50 -67 60
-185 134 -264 166 -64 26 -45 27 28 2z m-207 -31 c104 -27 154 -52 220 -113
52 -47 102 -122 90 -134 -3 -4 -30 10 -59 30 -89 59 -175 98 -276 125 -88 24
-112 26 -296 26 -145 0 -219 -5 -270 -16 -38 -9 -72 -14 -74 -12 -6 5 112 57
177 79 150 48 334 54 488 15z m556 -16 c172 -62 301 -161 329 -253 20 -68 -7
-115 -51 -91 -11 6 -50 52 -88 103 -69 93 -163 185 -244 239 -53 35 -40 35 54
2z m-907 -214 c255 -64 426 -242 425 -444 0 -78 -24 -131 -80 -179 l-43 -37
-8 -172 c-4 -95 -8 -199 -8 -230 l-1 -58 -465 0 c-436 0 -465 1 -465 18 0 28
-39 382 -46 419 -5 27 -14 37 -49 52 -89 40 -125 160 -86 289 56 185 243 322
496 363 76 12 241 2 330 -21z m-545 -1210 c-14 -4 -38 -11 -53 -14 -15 -4 -25
-11 -22 -16 4 -6 -1 -17 -10 -26 -9 -9 -14 -23 -11 -30 3 -7 1 -16 -5 -19 -5
-4 -6 -12 -2 -18 3 -7 -2 -4 -13 5 -11 9 -20 27 -21 39 -4 50 -91 82 -198 73
-33 -3 -36 -2 -15 5 14 5 104 9 200 9 106 0 165 -3 150 -8z m285 0 c25 -11
-94 -11 -180 0 -53 6 -47 7 50 8 61 0 119 -3 130 -8z m890 1 c32 -7 19 -9 -60
-9 -55 0 -109 3 -120 8 -26 11 125 12 180 1z m1034 -6 c86 -44 141 -164 148
-325 8 -179 -32 -315 -118 -395 l-48 -45 -1017 2 c-950 3 -1018 4 -1028 20 -7
12 -7 21 -1 27 7 7 351 12 981 15 533 3 977 8 987 12 9 3 17 9 17 14 0 8 -70
14 -540 40 -924 53 -1380 109 -1566 194 -62 28 -133 91 -160 141 -24 46 -38
45 -30 -4 8 -52 -10 -225 -29 -282 -27 -79 -109 -159 -163 -159 -33 0 -96 55
-125 108 l-28 52 23 0 c90 0 154 181 112 316 -10 32 -18 65 -19 71 0 7 -3 12
-5 10 -3 -1 -18 8 -34 21 -16 12 -37 22 -47 22 -25 0 -24 12 2 41 l20 24 -17
-27 c-13 -22 -13 -28 -3 -28 8 0 26 -6 41 -14 24 -12 27 -12 33 2 4 11 -3 25
-20 39 -23 20 -24 23 -7 23 55 0 117 -104 131 -220 14 -110 -10 -250 -55 -318
-9 -13 -13 -26 -10 -30 12 -11 55 41 82 101 27 59 29 69 29 197 -1 122 -3 141
-27 197 -30 74 -22 76 12 4 12 -28 27 -48 32 -45 4 3 8 1 8 -5 0 -14 66 -33
90 -26 13 4 20 2 18 -5 -2 -7 3 -15 11 -18 9 -3 11 0 6 9 -5 8 1 6 13 -5 25
-21 24 -22 24 77 0 31 1 57 2 57 2 0 47 -7 102 -15 54 -8 131 -14 169 -13 56
1 60 2 20 5 -263 16 -395 60 -264 87 25 5 432 9 934 10 490 0 854 3 810 6 -44
4 -74 7 -67 8 18 3 14 22 -5 23 -70 6 94 14 300 17 204 2 252 0 276 -13z
m-1706 -2 c-35 -2 -91 -2 -125 0 -35 2 -7 3 62 3 69 0 97 -1 63 -3z m1055 2
c-7 -8 -247 -9 -255 -2 -3 4 54 7 127 7 73 0 131 -2 128 -5z m-105 -32 c-13
-2 -33 -2 -45 0 -13 2 -3 4 22 4 25 0 35 -2 23 -4z m-2413 -185 c147 -38 178
-43 280 -43 94 0 121 3 143 18 48 31 85 15 102 -43 5 -20 1 -17 -19 13 -30 42
-42 45 -88 18 -18 -11 -58 -25 -90 -32 -48 -11 -54 -15 -40 -25 15 -11 14 -14
-12 -23 -52 -20 -222 -33 -395 -29 -163 3 -170 4 -195 27 -33 31 -33 43 2 82
38 43 103 48 229 20 91 -21 131 -26 121 -16 -7 8 -187 45 -222 46 -30 1 -30 1
-6 9 l25 8 -27 1 c-14 1 -28 -4 -30 -9 -2 -6 -22 -12 -46 -14 -48 -4 -74 -23
-92 -67 -7 -16 -15 -28 -17 -25 -7 7 23 59 45 79 27 25 88 46 132 47 20 0 110
-19 200 -42z m4053 28 c97 -40 135 -177 74 -267 -60 -89 -139 -96 -380 -36
-151 38 -224 46 -287 32 -31 -7 -33 -6 -21 8 7 9 10 24 7 34 -3 10 -6 42 -7
71 -4 81 -19 73 -20 -10 -2 -83 -7 -67 -11 38 l-4 71 29 -10 c48 -16 172 -1
337 42 166 43 231 49 283 27z m-3532 -271 c-11 -26 -27 -45 -36 -45 -8 0 -41
11 -73 24 -31 13 -68 26 -82 29 -18 4 -15 5 9 4 20 -1 36 3 38 11 3 6 0 12 -6
12 -5 0 -9 9 -8 19 0 11 4 18 7 16 4 -2 19 5 36 16 35 23 72 25 80 4 4 -8 15
-15 25 -15 15 0 19 8 21 38 1 28 3 24 5 -15 3 -37 -2 -66 -16 -98z m-904 88
c-3 -10 -5 -4 -5 12 0 17 2 24 5 18 2 -7 2 -21 0 -30z m82 -130 c19 -13 29
-23 23 -23 -30 0 -102 86 -102 122 0 7 10 -8 23 -32 12 -25 37 -55 56 -67z
m498 51 c-3 -3 -12 -4 -19 -1 -8 3 -5 6 6 6 11 1 17 -2 13 -5z m3217 -9 c3 -8
1 -15 -4 -15 -6 0 -10 7 -10 15 0 8 2 15 4 15 2 0 6 -7 10 -15z m-3440 -33 c8
-13 -132 -42 -189 -41 l-50 2 55 7 c30 4 73 14 95 22 46 18 82 22 89 10z"/>
<path d="M4694 6910 c-12 -5 -25 -13 -28 -18 -10 -17 33 -44 78 -49 37 -5 47
-2 52 12 14 35 -57 73 -102 55z"/>
<path d="M4340 6888 c-39 -11 -70 -35 -70 -53 0 -19 35 -45 61 -45 29 0 74 28
96 60 15 21 15 24 -2 36 -21 16 -36 16 -85 2z"/>
<path d="M4613 6725 c-29 -21 -29 -49 -1 -69 32 -23 63 -20 95 8 l28 25 -20
20 c-28 29 -75 36 -102 16z"/>
<path d="M4907 6703 c-4 -3 -7 -20 -7 -36 0 -36 69 -111 97 -105 38 7 28 71
-18 117 -29 29 -58 39 -72 24z"/>
<path d="M4309 6675 c-36 -19 -45 -46 -22 -63 22 -16 69 -9 95 15 22 20 22 27
2 47 -19 20 -41 20 -75 1z"/>
<path d="M4075 6646 c-28 -28 -32 -58 -10 -76 31 -26 90 24 83 72 -4 33 -42
35 -73 4z"/>
<path d="M4564 6510 c-38 -15 -39 -31 -5 -62 47 -42 131 -35 131 12 0 36 -82
68 -126 50z"/>
<path d="M4182 6443 c-21 -8 -44 -63 -38 -89 9 -33 50 -33 71 0 32 48 10 107
-33 89z"/>
<path d="M4853 6384 c-17 -46 52 -149 83 -123 28 23 9 104 -30 131 -19 13 -46
9 -53 -8z"/>
<path d="M4414 6325 c-9 -23 3 -59 31 -89 32 -34 49 -29 53 15 5 59 -66 122
-84 74z"/>
<path d="M4671 6204 c-23 -29 -37 -85 -27 -110 6 -15 9 -15 34 1 41 26 62 54
62 84 0 53 -37 66 -69 25z"/>
<path d="M4246 6198 c-32 -50 -27 -128 8 -128 25 0 56 50 56 89 0 59 -37 81
-64 39z"/>
<path d="M4842 6068 c-31 -31 6 -82 55 -76 21 2 29 9 31 26 7 46 -55 81 -86
50z"/>
<path d="M4448 6029 c-24 -13 -23 -56 1 -69 33 -17 61 -12 73 15 9 21 8 28 -7
45 -20 22 -41 25 -67 9z"/>
<path d="M6270 5798 c-24 -10 -24 -10 -5 -18 11 -5 29 -11 40 -15 16 -5 17 -8
5 -15 -13 -8 -13 -10 2 -10 9 0 19 6 21 13 3 7 6 5 6 -5 1 -11 8 -16 20 -13
12 2 23 -5 32 -21 9 -17 18 -22 28 -18 9 4 26 8 39 8 26 1 28 13 7 43 -38 55
-129 79 -195 51z"/>
<path d="M5991 5791 c-9 -6 -5 -10 15 -12 36 -6 64 0 64 12 0 11 -60 12 -79 0z"/>
<path d="M6009 5759 c-10 -6 -7 -9 11 -9 14 0 32 -5 40 -10 13 -9 13 -11 0
-20 -8 -5 -35 -12 -60 -15 -76 -10 -79 -15 -5 -9 65 5 84 14 85 39 0 16 -56
34 -71 24z"/>
<path d="M5843 5683 c15 -2 37 -2 50 0 12 2 0 4 -28 4 -27 0 -38 -2 -22 -4z"/>
<path d="M6480 5681 c0 -5 5 -13 10 -16 6 -3 10 -2 10 4 0 5 -4 13 -10 16 -5
3 -10 2 -10 -4z"/>
<path d="M5608 5673 c23 -2 59 -2 80 0 20 2 1 4 -43 4 -44 0 -61 -2 -37 -4z"/>
<path d="M5213 5663 c26 -2 68 -2 95 0 26 2 4 3 -48 3 -52 0 -74 -1 -47 -3z"/>
<path d="M4085 5532 c-6 -4 -11 -13 -10 -20 0 -16 51 -79 74 -92 18 -9 18 -7
7 28 -9 33 -47 92 -57 92 -2 0 -9 -4 -14 -8z"/>
<path d="M3987 5344 c-3 -3 -3 -13 0 -22 4 -10 3 -14 -1 -10 -5 4 -16 -1 -26
-10 -18 -18 -44 -62 -38 -66 2 -1 15 -7 30 -13 36 -16 46 -2 49 65 3 51 -2 68
-14 56z"/>
<path d="M3759 5223 c-6 -7 -20 -13 -30 -13 -23 0 -24 -13 -4 -30 8 -7 13 -16
10 -20 -6 -10 67 -76 95 -85 13 -4 33 -2 46 5 l23 13 -22 23 c-12 13 -27 24
-34 24 -19 0 -25 18 -13 39 8 16 6 21 -10 26 -11 3 -20 12 -20 19 0 17 -27 16
-41 -1z"/>
<path d="M4364 5079 c-8 -14 18 -31 30 -19 9 9 0 30 -14 30 -5 0 -12 -5 -16
-11z"/>
<path d="M4967 5083 c-16 -15 -5 -23 31 -23 35 1 36 2 18 15 -21 16 -39 19
-49 8z"/>
<path d="M5110 5087 c0 -3 7 -13 16 -22 14 -14 63 -15 435 -14 324 2 421 5
430 15 7 9 5 13 -8 16 -15 4 -517 3 -578 0 -11 -1 -82 1 -157 4 -76 3 -138 4
-138 1z"/>
<path d="M3298 5543 c7 -3 16 -2 19 1 4 3 -2 6 -13 5 -11 0 -14 -3 -6 -6z"/>
<path d="M3348 5533 c7 -3 16 -2 19 1 4 3 -2 6 -13 5 -11 0 -14 -3 -6 -6z"/>
<path d="M3463 5513 c9 -2 23 -2 30 0 6 3 -1 5 -18 5 -16 0 -22 -2 -12 -5z"/>
<path d="M7323 5421 c-5 -3 -9 -21 -10 -38 0 -24 4 -33 16 -33 14 0 14 -2 1
-10 -8 -5 -12 -11 -9 -15 10 -9 38 29 43 62 5 24 2 32 -13 36 -10 2 -23 2 -28
-2z"/>
<path d="M5335 4616 c-137 -27 -219 -70 -300 -157 -131 -140 -134 -350 -6
-436 47 -32 104 -31 137 2 30 30 28 55 -4 71 -67 33 -98 95 -89 179 11 103 67
173 187 229 54 25 80 31 157 34 79 4 98 1 137 -18 66 -32 91 -77 90 -165 -1
-121 -70 -220 -163 -232 l-42 -6 2 169 c2 198 0 201 -78 167 -26 -12 -69 -31
-95 -42 -52 -22 -60 -41 -30 -74 16 -17 17 -51 17 -391 0 -293 -3 -376 -14
-395 -11 -21 -11 -26 7 -43 24 -24 134 -56 222 -64 178 -17 341 68 406 209 25
54 28 74 28 152 0 105 -21 166 -82 228 -38 40 -99 77 -127 77 -8 0 -15 5 -15
10 0 6 6 10 13 10 23 0 106 92 123 136 26 69 16 158 -24 217 -77 111 -275 169
-457 133z m262 -577 c76 -28 113 -107 113 -239 0 -91 -18 -157 -55 -207 -58
-75 -173 -85 -204 -16 -7 15 -11 100 -11 229 l0 205 43 19 c48 22 74 24 114 9z"/>
<path d="M2488 4590 c-10 -6 -18 -19 -18 -29 0 -24 -94 -403 -126 -509 l-25
-84 -42 9 c-72 14 -150 9 -188 -13 -69 -41 -96 -113 -64 -174 18 -35 43 -50
84 -50 45 0 60 34 31 65 -26 28 -22 47 14 71 28 18 79 14 110 -9 16 -12 16
-16 -5 -77 -36 -106 -95 -223 -136 -268 -25 -28 -55 -49 -88 -60 -60 -21 -66
-40 -28 -81 28 -30 41 -34 98 -32 52 2 132 97 187 221 25 58 56 138 69 178
l24 74 35 -7 c97 -17 155 -23 179 -19 26 5 26 4 53 -113 32 -143 59 -217 102
-280 49 -71 103 -106 174 -111 52 -4 61 -1 90 23 44 37 42 62 -7 75 -88 23
-146 144 -194 403 l-15 78 34 26 c27 20 34 33 34 59 0 27 -4 34 -20 34 -11 0
-29 -5 -40 -12 -10 -7 -21 -10 -23 -8 -2 3 -24 141 -49 308 -25 167 -49 306
-53 310 -11 12 -179 13 -197 2z m98 -506 c28 -192 28 -194 -28 -194 -40 0
-127 20 -134 32 -3 5 20 111 52 236 l58 226 13 -62 c7 -34 24 -141 39 -238z"/>
<path d="M3553 4548 c-45 -16 -84 -36 -87 -44 -3 -7 6 -27 19 -43 l25 -29 0
-410 c1 -358 -1 -415 -15 -442 -9 -17 -13 -35 -10 -40 3 -6 58 -10 122 -10
l115 0 -6 28 c-24 99 -28 144 -24 322 4 213 12 248 63 288 35 28 57 28 81 1
18 -20 19 -40 19 -295 0 -205 -3 -276 -12 -286 -7 -6 -13 -22 -13 -35 0 -23 2
-23 114 -23 64 0 117 4 121 10 3 5 0 20 -7 32 -10 17 -14 103 -18 318 -5 290
-5 296 -29 337 -57 99 -195 109 -283 21 l-38 -38 -2 183 -3 182 -25 1 c-14 1
-62 -12 -107 -28z"/>
<path d="M6658 4547 c-51 -19 -88 -38 -88 -45 0 -8 9 -25 20 -39 19 -25 20
-41 20 -440 0 -358 -2 -418 -16 -445 -9 -17 -12 -34 -7 -38 9 -9 201 -20 221
-13 16 6 15 33 -3 76 -23 56 -20 203 5 245 21 34 41 41 58 20 5 -7 28 -66 50
-130 23 -64 54 -143 70 -175 73 -143 184 -247 292 -273 97 -23 195 12 188 69
-3 23 -9 27 -49 32 -99 14 -181 73 -248 178 -17 26 -58 112 -90 191 -59 139
-102 217 -128 227 -7 3 -13 8 -13 13 0 9 140 183 188 232 31 33 33 39 21 54
-11 13 -27 16 -92 12 -91 -5 -118 -21 -95 -57 11 -18 10 -27 -10 -64 -12 -23
-53 -83 -90 -132 l-67 -90 -5 310 c-6 361 7 333 -132 282z"/>
<path d="M3076 4295 c-107 -38 -155 -121 -135 -232 14 -70 48 -114 156 -196
139 -106 169 -144 156 -198 -15 -61 -76 -90 -136 -65 -55 22 -72 73 -45 132
11 23 10 28 -7 40 -28 21 -71 17 -102 -10 -25 -21 -28 -31 -28 -83 0 -112 71
-167 215 -167 47 -1 102 5 123 13 83 29 146 114 147 196 0 102 -47 167 -196
271 -111 77 -134 104 -134 154 0 50 33 80 86 80 58 0 84 -27 84 -88 0 -58 12
-72 61 -72 41 0 55 13 69 61 20 67 -36 146 -117 168 -53 15 -150 13 -197 -4z"/>
<path d="M6122 4292 c-86 -31 -132 -87 -132 -160 0 -60 55 -101 107 -81 37 14
43 25 43 87 0 63 23 92 73 92 66 0 110 -66 88 -133 -13 -39 -38 -59 -136 -110
-98 -51 -139 -88 -170 -151 -20 -41 -26 -69 -26 -119 0 -79 17 -122 64 -164
63 -56 160 -52 238 10 l30 24 35 -35 c33 -33 37 -34 95 -30 48 4 65 9 87 31
l27 27 -31 29 c-31 29 -31 32 -38 148 -4 65 -6 188 -5 273 3 181 -4 203 -78
247 -62 36 -190 43 -271 15z m166 -610 c-13 -25 -56 -52 -83 -52 -9 0 -27 11
-40 25 -21 20 -25 34 -25 83 0 77 30 133 101 191 l54 45 3 -135 c2 -93 -1
-141 -10 -157z"/>
<path d="M7376 4294 c-137 -43 -225 -239 -197 -443 20 -148 73 -242 168 -297
54 -32 159 -43 219 -24 59 19 119 65 138 104 20 42 20 41 0 60 -14 14 -19 13
-55 -16 -55 -44 -137 -51 -189 -16 -44 30 -80 83 -80 119 0 24 7 32 36 44 108
45 232 141 265 207 21 41 25 111 8 155 -38 103 -175 149 -313 107z m135 -77
c61 -47 47 -171 -27 -238 -35 -32 -105 -79 -118 -79 -12 0 0 196 15 243 22 68
89 106 130 74z"/>
<path d="M7916 4298 c-52 -14 -121 -82 -135 -133 -32 -118 14 -204 164 -305
128 -87 165 -145 134 -214 -15 -33 -71 -59 -108 -51 -56 12 -87 71 -65 124 17
41 17 36 -2 55 -25 26 -76 20 -106 -11 -76 -83 -15 -215 111 -242 197 -42 351
54 351 220 0 82 -62 160 -206 257 -88 59 -124 103 -124 152 0 76 78 109 149
63 21 -13 23 -20 18 -63 -6 -50 4 -69 46 -83 48 -17 104 47 94 109 -8 50 -34
81 -90 109 -41 20 -65 25 -121 24 -39 -1 -88 -6 -110 -11z"/>
<path d="M4168 4293 c-44 -5 -49 -23 -21 -76 14 -27 17 -77 22 -314 6 -264 7
-283 27 -309 66 -89 184 -100 266 -26 l41 37 -6 -80 c-8 -99 -28 -160 -69
-202 -42 -44 -101 -46 -148 -6 -30 25 -32 30 -27 75 5 40 3 49 -13 58 -48 26
-110 -25 -110 -90 0 -68 67 -138 154 -161 148 -40 311 51 367 204 22 59 23 80
28 442 5 291 9 386 19 404 11 17 11 26 2 35 -14 14 -205 15 -220 0 -7 -7 -6
-23 5 -53 23 -65 22 -474 -1 -531 -24 -61 -82 -81 -118 -41 -16 18 -17 46 -14
324 l3 305 -35 6 c-36 6 -87 6 -152 -1z"/>
<path d="M4142 2988 l3 -153 86 -3 c81 -3 89 -1 118 24 37 30 42 78 12 115
-16 20 -16 26 -5 48 21 39 17 59 -15 92 -28 28 -34 29 -115 29 l-87 0 3 -152z
m152 80 c18 -29 -4 -53 -50 -53 -33 0 -39 3 -42 23 -6 41 5 53 44 50 22 -2 42
-10 48 -20z m16 -127 c21 -40 -13 -67 -76 -59 -30 3 -43 31 -30 64 9 23 93 19
106 -5z"/>
<path d="M4575 3108 c-42 -95 -96 -251 -91 -263 10 -27 43 -16 65 20 19 33 23
35 74 35 51 0 54 -2 68 -32 10 -25 20 -33 39 -33 39 0 35 26 -23 170 -51 126
-54 130 -85 133 -28 3 -34 -1 -47 -30z m64 -95 c8 -21 16 -44 18 -50 4 -9 -6
-13 -29 -13 -19 0 -37 3 -40 6 -8 7 21 94 31 94 4 0 13 -17 20 -37z"/>
<path d="M4874 3127 c-2 -7 -3 -76 -2 -152 l3 -140 25 0 c22 0 26 5 31 42 9
74 43 93 72 43 47 -79 99 -113 114 -74 5 13 -8 35 -85 144 -12 16 -8 25 38 75
52 58 56 75 15 75 -17 0 -41 -19 -81 -65 -47 -53 -60 -62 -67 -50 -4 9 -8 26
-7 38 5 63 1 77 -25 77 -14 0 -28 -6 -31 -13z"/>
<path d="M5245 3127 c-3 -7 -4 -76 -3 -152 l3 -140 100 0 c96 0 100 1 103 23
2 13 -2 22 -10 23 -7 0 -40 1 -73 2 l-60 2 -3 38 -3 37 54 0 c36 0 59 5 67 15
22 26 -5 45 -66 45 -53 0 -54 0 -54 30 0 33 11 38 95 42 42 3 50 6 50 23 0 18
-8 20 -98 23 -74 2 -99 0 -102 -11z"/>
<path d="M5574 3127 c-2 -7 -3 -76 -2 -152 l3 -140 27 -3 c22 -3 29 2 34 22 3
14 3 37 0 50 -7 28 15 50 41 42 10 -4 32 -30 48 -59 20 -35 37 -53 53 -55 34
-5 37 23 7 73 l-26 46 25 30 c36 43 35 92 -3 130 -28 28 -34 29 -116 29 -61 0
-87 -4 -91 -13z m161 -61 c13 -20 14 -29 5 -46 -9 -18 -19 -21 -58 -18 -43 3
-47 5 -50 31 -6 46 4 57 47 57 32 0 44 -5 56 -24z"/>
<path d="M5904 3127 c-2 -7 17 -48 43 -91 41 -67 48 -87 51 -142 4 -63 5 -65
31 -62 24 3 26 7 29 61 3 50 10 69 53 136 57 90 62 114 22 109 -20 -2 -35 -16
-60 -58 -18 -30 -36 -56 -41 -58 -4 -1 -22 25 -40 58 -27 48 -38 60 -58 60
-14 0 -27 -6 -30 -13z"/>
<path d="M3443 2994 c-3 -9 0 -20 8 -25 8 -5 109 -9 225 -9 185 0 213 2 218
16 3 9 4 20 0 25 -3 5 -104 9 -225 9 -192 0 -220 -2 -226 -16z"/>
<path d="M6362 2988 l3 -23 220 0 220 0 3 23 3 22 -226 0 -226 0 3 -22z"/>
</g>
</svg>
